<svg width="170" height="81" viewBox="0 0 170 81" fill="none" xmlns="http://www.w3.org/2000/svg">
<path d="M5.45422 0.399998V19.32L14.0942 7.48H19.3742L10.5742 19.52L20.4142 33H15.1342L5.45422 19.76V33H1.21422V0.399998H5.45422ZM22.8508 11.24C25.3574 8.73333 28.3708 7.48 31.8908 7.48C35.4108 7.48 38.4108 8.73333 40.8908 11.24C43.3974 13.72 44.6508 16.72 44.6508 20.24C44.6508 23.76 43.3974 26.7733 40.8908 29.28C38.4108 31.76 35.4108 33 31.8908 33C28.3708 33 25.3574 31.76 22.8508 29.28C20.3708 26.7733 19.1308 23.76 19.1308 20.24C19.1308 16.72 20.3708 13.72 22.8508 11.24ZM37.8908 14.24C36.2374 12.56 34.2374 11.72 31.8908 11.72C29.5441 11.72 27.5308 12.56 25.8508 14.24C24.1974 15.8933 23.3708 17.8933 23.3708 20.24C23.3708 22.5867 24.1974 24.5867 25.8508 26.24C27.5308 27.8933 29.5441 28.72 31.8908 28.72C34.2374 28.72 36.2374 27.8933 37.8908 26.24C39.5708 24.5867 40.4108 22.5867 40.4108 20.24C40.4108 17.8933 39.5708 15.8933 37.8908 14.24ZM59.7767 7.48H62.6167C66.1367 7.48 69.1367 8.73333 71.6167 11.24C74.1234 13.7467 75.3767 16.7467 75.3767 20.24C75.3767 23.6 74.2034 26.52 71.8567 29C69.5367 31.4533 66.6967 32.7867 63.3367 33V43.08H59.0967V33C55.7367 32.8133 52.8834 31.4933 50.5367 29.04C48.2167 26.56 47.0567 23.6267 47.0567 20.24C47.0567 16.7467 48.31 13.7467 50.8167 11.24C53.3234 8.73333 56.3101 7.48 59.7767 7.48ZM63.3367 11.8V28.72C65.4967 28.5333 67.3367 27.6267 68.8567 26C70.3767 24.3733 71.1367 22.4533 71.1367 20.24C71.1367 18.0267 70.3767 16.12 68.8567 14.52C67.3634 12.8933 65.5234 11.9867 63.3367 11.8ZM59.0967 28.72V11.8C56.9367 11.9867 55.0967 12.8933 53.5767 14.52C52.0567 16.1467 51.2967 18.0533 51.2967 20.24C51.2967 22.4533 52.0434 24.3733 53.5367 26C55.0567 27.6267 56.91 28.5333 59.0967 28.72ZM81.6239 11.24C84.1306 8.73333 87.1439 7.48 90.6639 7.48C94.1839 7.48 97.1839 8.73333 99.6639 11.24C102.171 13.72 103.424 16.72 103.424 20.24C103.424 20.9067 103.357 21.6133 103.224 22.36H82.4239C82.9039 24.2267 83.9039 25.76 85.4239 26.96C86.9439 28.1333 88.6906 28.72 90.6639 28.72C93.1439 28.72 95.2106 27.8267 96.8639 26.04H102.024C100.957 28.1467 99.3972 29.84 97.3439 31.12C95.3172 32.3733 93.0906 33 90.6639 33C87.1439 33 84.1306 31.76 81.6239 29.28C79.1439 26.7733 77.9039 23.76 77.9039 20.24C77.9039 16.72 79.1439 13.72 81.6239 11.24ZM82.4239 18.12H98.9039C98.4506 16.2533 97.4506 14.72 95.9039 13.52C94.3839 12.32 92.6372 11.72 90.6639 11.72C88.6906 11.72 86.9306 12.32 85.3839 13.52C83.8639 14.72 82.8772 16.2533 82.4239 18.12ZM125.437 7.48V33H121.197V31.2C119.437 32.4 117.544 33 115.517 33C112.797 33 110.464 32.0267 108.517 30.08C106.571 28.1333 105.597 25.8 105.597 23.08V7.48H109.837V23.08C109.837 24.6267 110.384 25.96 111.477 27.08C112.597 28.2 113.944 28.76 115.517 28.76C117.064 28.76 118.397 28.2 119.517 27.08C120.637 25.96 121.197 24.6267 121.197 23.08V7.48H125.437ZM120.477 0.399998C120.477 1.78667 119.984 2.96 118.997 3.92C118.037 4.88 116.877 5.36 115.517 5.36C114.131 5.36 112.957 4.88 111.997 3.92C111.037 2.96 110.557 1.78667 110.557 0.399998H113.397C113.397 0.986665 113.597 1.49333 113.997 1.92C114.424 2.32 114.931 2.52 115.517 2.52C116.104 2.52 116.597 2.32 116.997 1.92C117.424 1.49333 117.637 0.986665 117.637 0.399998H120.477ZM142.8 7.48H147.08V33H142.8V21.4H132.52V33H128.28V7.48H132.52V17.16H142.8V7.48ZM164.352 33V24.48H158.592L154.912 33H150.272L154.392 23.52C153.032 22.7733 151.925 21.7333 151.072 20.4C150.245 19.04 149.832 17.56 149.832 15.96C149.832 13.64 150.672 11.6533 152.352 10C154.032 8.32 156.032 7.48 158.352 7.48H168.592V33H164.352ZM164.352 11.72H158.352C157.205 11.72 156.205 12.1333 155.352 12.96C154.525 13.7867 154.112 14.7867 154.112 15.96C154.112 17.1333 154.525 18.1467 155.352 19C156.178 19.8267 157.178 20.24 158.352 20.24H164.352V11.72ZM0.530622 81V65.4C0.530622 62.68 1.50396 60.3467 3.45062 58.4C5.39729 56.4533 7.73062 55.48 10.4506 55.48C13.1973 55.48 15.5306 56.4533 17.4506 58.4C19.3973 60.32 20.3706 62.6533 20.3706 65.4V81H16.1306V65.4C16.1306 63.8533 15.5706 62.52 14.4506 61.4C13.3306 60.28 11.9973 59.72 10.4506 59.72C8.90396 59.72 7.57062 60.28 6.45062 61.4C5.33062 62.52 4.77062 63.8533 4.77062 65.4V81H0.530622ZM26.545 59.24C29.0517 56.7333 32.065 55.48 35.585 55.48C39.105 55.48 42.105 56.7333 44.585 59.24C47.0917 61.72 48.345 64.72 48.345 68.24C48.345 68.9067 48.2783 69.6133 48.145 70.36H27.345C27.825 72.2267 28.825 73.76 30.345 74.96C31.865 76.1333 33.6117 76.72 35.585 76.72C38.065 76.72 40.1317 75.8267 41.785 74.04H46.945C45.8783 76.1467 44.3183 77.84 42.265 79.12C40.2383 80.3733 38.0117 81 35.585 81C32.065 81 29.0517 79.76 26.545 77.28C24.065 74.7733 22.825 71.76 22.825 68.24C22.825 64.72 24.065 61.72 26.545 59.24ZM27.345 66.12H43.825C43.3717 64.2533 42.3717 62.72 40.825 61.52C39.305 60.32 37.5583 59.72 35.585 59.72C33.6117 59.72 31.8517 60.32 30.305 61.52C28.785 62.72 27.7983 64.2533 27.345 66.12ZM53.1344 59.24C55.641 56.7333 58.6544 55.48 62.1744 55.48C65.6944 55.48 68.6944 56.7333 71.1744 59.24C73.681 61.72 74.9344 64.72 74.9344 68.24C74.9344 71.76 73.681 74.7733 71.1744 77.28C68.6944 79.76 65.6944 81 62.1744 81C58.6544 81 55.641 79.76 53.1344 77.28C50.6544 74.7733 49.4144 71.76 49.4144 68.24C49.4144 64.72 50.6544 61.72 53.1344 59.24ZM68.1744 62.24C66.521 60.56 64.521 59.72 62.1744 59.72C59.8277 59.72 57.8144 60.56 56.1344 62.24C54.481 63.8933 53.6544 65.8933 53.6544 68.24C53.6544 70.5867 54.481 72.5867 56.1344 74.24C57.8144 75.8933 59.8277 76.72 62.1744 76.72C64.521 76.72 66.521 75.8933 68.1744 74.24C69.8544 72.5867 70.6944 70.5867 70.6944 68.24C70.6944 65.8933 69.8544 63.8933 68.1744 62.24Z" fill="#171717"/>
<path d="M89.9403 55.48C92.3136 55.48 94.5003 56.0933 96.5003 57.32C98.527 58.52 100.087 60.12 101.18 62.12H95.9003C94.247 60.52 92.2603 59.72 89.9403 59.72C87.5936 59.72 85.5936 60.56 83.9403 62.24C82.287 63.8933 81.4603 65.8933 81.4603 68.24C81.4603 70.5867 82.287 72.5867 83.9403 74.24C85.5936 75.8933 87.5936 76.72 89.9403 76.72C91.327 76.72 92.6203 76.4133 93.8203 75.8C95.0203 75.1867 96.007 74.3467 96.7803 73.28H101.66C100.674 75.5733 99.1136 77.44 96.9803 78.88C94.8736 80.2933 92.527 81 89.9403 81C86.4203 81 83.4203 79.76 80.9403 77.28C78.4603 74.7733 77.2203 71.76 77.2203 68.24C77.2203 64.72 78.4603 61.72 80.9403 59.24C83.4203 56.7333 86.4203 55.48 89.9403 55.48ZM128.357 68.24V81H124.117V77.72C121.717 79.9067 118.877 81 115.597 81C112.077 81 109.064 79.76 106.557 77.28C104.077 74.7733 102.837 71.76 102.837 68.24C102.837 64.72 104.077 61.72 106.557 59.24C109.064 56.7333 112.077 55.48 115.597 55.48C119.117 55.48 122.117 56.7333 124.597 59.24C127.104 61.72 128.357 64.72 128.357 68.24ZM115.597 59.72C113.25 59.72 111.25 60.56 109.597 62.24C107.944 63.8933 107.117 65.8933 107.117 68.24C107.117 70.5867 107.944 72.5867 109.597 74.24C111.25 75.8933 113.25 76.72 115.597 76.72C117.944 76.72 119.944 75.8933 121.597 74.24C123.277 72.5867 124.117 70.5867 124.117 68.24C124.117 65.8667 123.29 63.8533 121.637 62.2C119.984 60.5467 117.97 59.72 115.597 59.72ZM133.398 56.88V56.92C133.398 54.5733 134.225 52.5733 135.878 50.92C137.558 49.24 139.571 48.4 141.918 48.4H143.318V52.64H141.918C140.745 52.64 139.745 53.0533 138.918 53.88C138.091 54.7067 137.678 55.7067 137.678 56.88H143.318V61.12H137.678V81H133.398V61.12H130.558V56.88H133.398ZM147.67 59.24C150.177 56.7333 153.19 55.48 156.71 55.48C160.23 55.48 163.23 56.7333 165.71 59.24C168.217 61.72 169.47 64.72 169.47 68.24C169.47 68.9067 169.403 69.6133 169.27 70.36H148.47C148.95 72.2267 149.95 73.76 151.47 74.96C152.99 76.1333 154.737 76.72 156.71 76.72C159.19 76.72 161.257 75.8267 162.91 74.04H168.07C167.003 76.1467 165.443 77.84 163.39 79.12C161.363 80.3733 159.137 81 156.71 81C153.19 81 150.177 79.76 147.67 77.28C145.19 74.7733 143.95 71.76 143.95 68.24C143.95 64.72 145.19 61.72 147.67 59.24ZM148.47 66.12H164.95C164.497 64.2533 163.497 62.72 161.95 61.52C160.43 60.32 158.683 59.72 156.71 59.72C154.737 59.72 152.977 60.32 151.43 61.52C149.91 62.72 148.923 64.2533 148.47 66.12Z" fill="#FF8B5B"/>
</svg>
