<svg width="342" height="251" viewBox="0 0 342 251" fill="none" xmlns="http://www.w3.org/2000/svg">
<path d="M235.088 21.7396C232.374 14.4927 229.542 6.93165 210.369 12.0458C200.073 14.7919 191.443 24.4942 184.388 38.9024C179.08 50.3612 174.596 65.1788 171.018 82.9448C163.708 119.248 160.628 166.208 162.068 211.865L158.877 211.966L158.835 210.589C157.861 177.619 159.228 144.034 162.835 114.258C147.491 98.3114 130.002 85.7423 117.258 81.5675C87.0568 74.9085 79.0783 92.5013 79.2762 108.195C79.3123 111.064 80.3152 113.451 81.3255 115.855C82.3701 118.342 83.4227 120.847 83.4227 123.924C83.4227 125.965 78.8585 130.181 72.9254 135.661C61.2611 146.435 44.3061 162.095 46.3411 175.724C48.2217 188.319 60.1478 197.882 71.1252 203.024C72.1999 203.527 73.3705 204.462 74.7788 205.588C75.7805 206.388 76.9025 207.284 78.1959 208.19L78.2953 208.259C79.3113 208.959 80.9881 209.946 83.3258 211.221L84.047 211.612C117.118 229.452 155.5 217.433 167.46 212.997L168.159 212.735L252.974 211.791L252.963 211.724C252.94 211.586 252.902 211.381 252.853 211.116C252.056 206.795 248.311 186.5 256.285 178.322C281.184 152.781 308.488 79.6872 271.365 49.0579C263.161 42.2891 255.021 38.1743 248.769 35.0141C244.972 33.0947 241.872 31.5275 239.877 29.9317C237.42 27.9666 236.265 24.8826 235.088 21.7396Z" fill="#FF8B5B"/>
<path fill-rule="evenodd" clip-rule="evenodd" d="M84.8849 103.55C83.0158 103.225 86.3191 106.931 86.3191 106.931C86.3191 106.931 86.754 103.875 84.8849 103.55Z" fill="white"/>
<path fill-rule="evenodd" clip-rule="evenodd" d="M112.842 212.076C112.842 212.076 92.7649 203.676 92.7649 191.981C92.7649 188.55 94.911 188.88 99.2032 192.97C99.6701 193.414 100.339 194.097 101.209 195.018C101.743 195.582 89.6936 180.952 95.7651 178.215C101.683 175.547 103.06 189.397 103.369 189.206C103.713 188.993 103.613 184.803 104.982 182.95C105.72 181.952 107.89 181.739 109.532 182.95C118.158 189.314 112.842 212.076 112.842 212.076Z" fill="white"/>
<path fill-rule="evenodd" clip-rule="evenodd" d="M104.212 126.285C104.212 126.285 95.8608 125.856 94.7224 123.201C93.584 120.545 99.777 122.054 99.777 122.054L104.212 126.285Z" fill="white"/>
<path fill-rule="evenodd" clip-rule="evenodd" d="M90.0882 113.697C88.2185 112.65 89.2818 110.156 90.0882 110.052C92.4751 109.745 94.3587 115.034 94.6218 115.564C95.0775 116.481 91.0368 114.227 90.0882 113.697Z" fill="white"/>
<path fill-rule="evenodd" clip-rule="evenodd" d="M109.314 129.73C109.314 129.73 104.742 118.073 108.974 118.992C113.207 119.91 111.99 133.462 111.99 133.462L109.314 129.73Z" fill="white"/>
<path fill-rule="evenodd" clip-rule="evenodd" d="M106.244 121.239C106.304 123.13 107.112 126.03 108.663 129.986C108.684 130.039 108.712 130.091 108.746 130.138L111.421 133.869C111.799 134.396 112.628 134.17 112.686 133.524L112.734 132.966C113.486 123.93 112.401 119.02 109.123 118.308C107.216 117.895 106.174 119.035 106.244 121.239ZM108.897 119.692C110.933 120.214 111.88 123.993 111.466 131.085L111.44 131.497L109.932 129.393L109.669 128.709C108.366 125.285 107.691 122.769 107.642 121.195L107.638 120.975C107.635 119.783 107.962 119.487 108.826 119.675L108.897 119.692Z" fill="#00160A"/>
<path fill-rule="evenodd" clip-rule="evenodd" d="M93.1668 177.508C90.2214 178.836 90.4253 182.185 92.6738 186.748L92.8465 187.093C93.2577 187.902 93.7271 188.737 94.2462 189.594L94.4251 189.886L94.4028 189.871C93.562 189.312 92.8365 188.985 92.2124 188.889C90.5551 188.635 89.71 189.856 89.71 191.981C89.71 200.166 96.6219 207.084 110.263 212.791C110.705 212.976 111.208 212.719 111.317 212.252C114.925 196.806 113.789 186.809 107.713 182.326C105.849 180.951 103.153 181.036 102.079 182.489L101.986 182.621C101.53 183.292 101.211 184.175 100.975 185.273L100.965 185.322L100.934 185.201C100.766 184.544 100.589 183.924 100.388 183.302C99.722 181.242 98.9257 179.625 97.9269 178.542C96.6122 177.118 94.9777 176.692 93.1668 177.508ZM99.8394 187.33L100.18 188.935L100.219 189.101C100.244 189.202 100.267 189.284 100.29 189.352C100.321 189.445 100.354 189.522 100.405 189.603C100.469 189.704 100.549 189.793 100.675 189.869C100.921 190.018 101.237 190.026 101.497 189.865C101.832 189.658 101.914 189.48 102.006 188.894L102.049 188.601C102.079 188.385 102.19 187.464 102.209 187.318C102.283 186.737 102.358 186.257 102.449 185.8C102.664 184.727 102.953 183.916 103.326 183.411C103.837 182.72 105.56 182.665 106.792 183.574L106.954 183.696C112.078 187.642 113.188 196.582 110.108 210.573L110.013 211L109.698 210.864C97.3506 205.479 91.2605 199.167 91.2605 191.981C91.2605 190.676 91.4885 190.346 91.9772 190.421C92.8423 190.554 94.3534 191.591 96.3888 193.531L96.6489 193.783C96.9592 194.088 97.3403 194.476 97.7915 194.947L98.3924 195.577C98.4027 195.587 98.4182 195.601 98.449 195.629L98.4588 195.652C98.4827 195.691 98.5589 195.705 99.0672 195.8L99.2443 195.738C99.4538 195.658 99.4872 195.606 99.6653 195.326L99.7059 195.156C99.7306 195.044 99.727 195.018 99.714 194.921L99.6802 194.783C99.6727 194.757 99.6671 194.743 99.6577 194.723L99.6499 194.706C99.6291 194.661 99.6171 194.638 99.5973 194.608L99.3865 194.324L98.8494 193.613C98.7571 193.49 98.664 193.364 98.561 193.224C97.6774 192.025 96.8205 190.786 96.0151 189.507C95.2607 188.31 94.6022 187.154 94.0646 186.063C92.1675 182.213 92.0162 179.727 93.804 178.921C95.9556 177.952 97.6076 179.742 98.9126 183.779C99.2673 184.876 99.5481 185.982 99.8394 187.33Z" fill="#00160A"/>
<path fill-rule="evenodd" clip-rule="evenodd" d="M95.5706 115.991L96.2074 116.571C104.104 123.779 109.601 129.53 112.532 133.521C117.647 140.486 121.769 147.711 125.243 155.361C126.477 158.08 127.595 160.772 128.696 163.631L128.996 164.414C129.34 165.317 129.672 166.208 130.033 167.197L131.575 171.449C135.744 182.864 134.364 183.42 130.395 172.317L128.836 168.012C128.509 167.117 128.21 166.309 127.91 165.511L127.683 164.914C126.494 161.787 125.297 158.879 123.964 155.942C120.528 148.376 116.454 141.235 111.4 134.352L111.168 134.04C108.165 130.042 102.591 124.263 94.6263 117.031C94.339 116.771 94.3176 116.326 94.5784 116.039C94.8392 115.752 95.2834 115.731 95.5706 115.991ZM77.0886 100.07L86.922 108.464C87.8438 109.254 88.5623 109.874 88.9052 110.176C89.1963 110.433 89.2242 110.876 88.9677 111.167C88.7112 111.458 88.2673 111.486 87.9763 111.23L85.4172 109.024C82.0188 106.113 76.6535 101.547 76.175 101.138C75.8803 100.885 75.8459 100.442 76.0982 100.147C76.3505 99.8526 76.7939 99.8182 77.0886 100.07Z" fill="#00160A"/>
<path fill-rule="evenodd" clip-rule="evenodd" d="M95.2622 120.904C93.9711 121.197 93.5362 122.208 94.0798 123.476C94.9866 125.591 98.3482 126.684 104.176 126.983C104.824 127.016 105.164 126.226 104.695 125.779L100.259 121.548C100.171 121.464 100.061 121.404 99.9424 121.375C97.7793 120.848 96.2401 120.683 95.2622 120.904ZM99.4299 122.69L102.322 125.447L102.148 125.431L101.711 125.385C97.9883 124.968 95.8707 124.105 95.365 122.925L95.3124 122.799C95.1577 122.411 95.2135 122.349 95.5715 122.268C96.2313 122.118 97.4665 122.236 99.2263 122.642L99.4299 122.69Z" fill="#00160A"/>
<path fill-rule="evenodd" clip-rule="evenodd" d="M91.1571 216.18C89.3965 217.194 90.1137 218.249 93.9106 219.934C98.0075 221.776 105.632 225.333 118.729 226.335C139.014 227.887 157.484 224.959 180.8 224.959C213.079 224.959 227.248 232.051 238.546 230.415C268.831 226.031 275.692 217.521 266.657 215.325C256.738 212.915 225.209 213.209 214.596 212.516L211.312 212.305L208.49 212.235C177.941 211.484 128.974 212.235 119.411 212.235C99.901 212.235 91.1571 216.18 91.1571 216.18Z" fill="white"/>
<path fill-rule="evenodd" clip-rule="evenodd" d="M180.8 224.959C213.079 224.959 227.248 232.296 238.545 230.66C268.831 226.276 275.692 217.521 266.657 215.325C256.738 212.915 220.704 212.132 211.831 212.324C211.831 212.324 252.622 219.861 250.439 222.357C243.94 229.789 227.757 220.808 198.364 221.07C192.309 221.124 180.8 224.959 180.8 224.959Z" fill="#E7EAEE"/>
<path fill-rule="evenodd" clip-rule="evenodd" d="M121.347 212.553C120.561 212.558 119.93 212.56 119.411 212.56L118.52 212.562C105.837 212.621 96.5858 213.954 90.7281 216.597L90.6366 216.644C89.2685 217.432 88.7442 218.592 89.604 219.784C90.16 220.554 91.3239 221.282 93.2884 222.167L94.9585 222.913C97.0423 223.836 98.2782 224.336 100.134 224.989L100.335 225.059C105.687 226.929 111.627 228.205 118.65 228.743C123.639 229.124 128.725 229.256 134.299 229.178L136.25 229.144C139.915 229.068 143.038 228.94 148.742 228.633L158.602 228.087C167.997 227.579 173.729 227.376 180.496 227.37L180.8 227.37C192.911 227.37 202.804 228.292 213.778 230.088L214.73 230.247C216.384 230.534 225.478 232.136 227.989 232.497L228.076 232.509C232.457 233.126 235.699 233.249 238.695 232.816L239.533 232.692C253.136 230.66 262.966 227.632 267.93 224.282C272.89 220.935 272.441 217.101 267.068 215.721L266.904 215.68C262.442 214.595 253.971 213.993 240.81 213.599L238.111 213.522C237.324 213.501 236.511 213.48 235.656 213.459L224.199 213.194C219.787 213.085 217.081 212.991 215.033 212.867L211.378 212.633L208.516 212.56L205.607 212.494C197.171 212.318 187.094 212.234 175.56 212.227L172.131 212.227C164.093 212.232 155.775 212.271 146.487 212.341L121.347 212.553ZM178.243 214.316C189.754 214.336 199.736 214.436 207.99 214.634L211.285 214.716L215.032 214.956C217.094 215.079 219.794 215.172 224.138 215.279L235.174 215.534C236.475 215.566 237.678 215.597 238.831 215.629L241.534 215.708C254.08 216.098 262.235 216.692 266.411 217.707L266.661 217.77C270.124 218.679 270.238 220.208 266.763 222.553C262.012 225.759 242.507 234.349 228.724 231.42L228.09 231.331C225.177 230.897 215.413 228.708 214.838 228.612L213.423 228.38C202.853 226.679 193.207 225.786 181.578 225.748L179.887 225.748C172.933 225.767 166.944 225.999 156.767 226.562L149.705 226.956C142.875 227.328 139.618 227.461 135.368 227.538L135.026 227.544C113.475 228.38 100.335 223.361 100.335 223.361C98.6153 222.746 94.1652 221.201 94.1652 221.201L93.834 221.049C83.4519 217.524 106.119 214.705 118.539 214.648L122.41 214.633L144.901 214.439C155.371 214.358 164.589 214.313 173.506 214.312L178.243 214.316Z" fill="#00160A"/>
<path fill-rule="evenodd" clip-rule="evenodd" d="M226.136 197.5C226.136 197.5 226.082 200.591 227.034 202.022C227.985 203.453 230.64 207.433 233.108 208.481C233.869 208.803 236.773 208.844 238.517 209.864C242.021 211.911 242.802 215.599 238.517 216.381C230.01 217.932 227.034 213.448 227.034 213.448C227.034 213.448 223.529 208.481 220.017 205.186C216.504 201.892 213.706 200.9 213.706 200.9" fill="white"/>
<path d="M255.494 61.5545C254.31 61.4656 253.614 62.3657 253.614 63.4552C253.614 67.227 259.776 72.3851 263.792 72.3851C264.969 72.3851 265.932 71.5433 265.59 70.2564C265.461 69.7714 265.164 69.3411 264.678 68.8108L264.571 68.6955C264.024 68.115 263.459 67.5965 262.191 66.5059L260.25 64.8419C259.773 64.4297 259.016 63.7721 258.787 63.5764L258.511 63.3422C257.981 62.8948 257.57 62.5689 257.204 62.3099C256.556 61.8521 256.054 61.5966 255.494 61.5545Z" fill="white"/>
<path fill-rule="evenodd" clip-rule="evenodd" d="M216.127 135.507C216.127 135.507 213.794 128.848 207.797 127.045C205.891 126.472 214.226 139.05 206.87 143.742C204.574 145.207 200.491 145.967 195.467 146.682C173.07 149.87 166.318 141.514 152.493 137.433C146.949 135.796 119.985 128.558 115.908 165.431C113.357 188.511 132.685 195.663 150.006 199.331C184.706 206.677 237.877 203.782 254.459 179.568C274.226 150.704 243.846 125.569 239.565 122.912C238.529 122.268 241.501 130.517 241.831 134.689C242.161 138.861 239.565 140.378 239.565 140.378C239.565 140.378 238.542 135.961 229.495 135.203C220.448 134.445 216.127 135.507 216.127 135.507Z" fill="white"/>
<path fill-rule="evenodd" clip-rule="evenodd" d="M83.0217 104.779C83.3387 105.526 84.0762 106.517 85.2753 107.862C86.067 108.75 87.5359 108.307 87.7035 107.129C88.0864 104.437 87.2852 102.548 85.1244 102.173C83.433 101.879 82.3408 103.174 83.0217 104.779ZM86.3192 106.932L86.1047 106.689C84.0871 104.387 83.6805 103.341 84.885 103.55C86.1311 103.767 86.6091 104.894 86.3192 106.932Z" fill="#00160A"/>
<path fill-rule="evenodd" clip-rule="evenodd" d="M89.9989 109.359C89.2129 109.46 88.5723 110.382 88.3958 111.401C88.1927 112.574 88.6287 113.681 89.7468 114.306L90.5177 114.734C91.2613 115.141 91.929 115.491 92.5787 115.803L92.8802 115.945C93.3642 116.169 93.7559 116.326 94.0537 116.408C94.3586 116.491 94.5899 116.515 94.8367 116.425C95.3643 116.232 95.4568 115.734 95.2745 115.31L95.2168 115.181C95.1439 115.01 94.9639 114.581 94.8603 114.342L94.8378 114.29C94.5557 113.645 94.2679 113.05 93.9511 112.482C92.7779 110.38 91.5162 109.163 89.9989 109.359ZM92.8743 113.428C93.0643 113.784 93.2454 114.157 93.4235 114.551L93.4822 114.683L93.3101 114.603L93.1844 114.543C92.3522 114.143 91.4725 113.67 90.4296 113.086C89.8663 112.771 89.6658 112.262 89.7735 111.64C89.8203 111.37 89.9264 111.108 90.0593 110.917C90.0999 110.858 90.1401 110.811 90.1761 110.776L90.2153 110.742L90.1774 110.745C90.9051 110.652 91.8215 111.536 92.7301 113.163L92.8743 113.428Z" fill="#00160A"/>
<path fill-rule="evenodd" clip-rule="evenodd" d="M101.955 121.416C101.831 120.875 94.8662 108.183 99.7568 108.581C104.647 108.98 103.483 123.365 103.313 123.365C103.112 123.365 102.045 121.805 101.955 121.416Z" fill="white"/>
<path fill-rule="evenodd" clip-rule="evenodd" d="M97.3186 110.472C97.3188 111.686 97.7239 113.293 98.4506 115.246C98.6688 115.833 98.9133 116.442 99.1819 117.074L99.346 117.456C99.9914 118.944 101.285 121.621 101.274 121.572C101.343 121.875 101.634 122.379 102.017 122.933L102.158 123.135C102.626 123.801 102.86 124.042 103.255 124.062L103.422 124.066C103.896 124.091 103.896 124.254 104.005 123.564L104.045 123.312C104.061 123.209 104.078 123.074 104.095 122.913L104.105 122.814C104.149 122.365 104.188 121.78 104.215 121.14C104.284 119.486 104.265 117.716 104.129 116.065L104.092 115.646C103.655 111.016 102.385 108.094 99.8136 107.884C98.1703 107.75 97.3184 108.778 97.3186 110.472ZM99.7 109.278C101.338 109.411 102.391 111.979 102.736 116.179C102.866 117.768 102.885 119.482 102.818 121.081L102.795 121.557L102.77 121.514C102.702 121.399 102.656 121.311 102.641 121.273L102.637 121.259C102.607 121.128 101.204 118.225 100.629 116.9C100.304 116.152 100.014 115.438 99.7612 114.759C99.0881 112.95 98.7171 111.478 98.7169 110.471C98.7168 109.555 98.9516 109.24 99.626 109.273L99.7 109.278Z" fill="#00160A"/>
<path fill-rule="evenodd" clip-rule="evenodd" d="M121.175 147.2C121.175 147.2 122.707 145.072 123.568 144.015C124.429 142.958 125.352 142.073 125.352 142.073C125.352 142.073 104.555 140.004 97.3507 134.642C87.9438 127.64 79.5054 116.027 71.0056 113.571C60.8442 110.635 57.0834 117.445 54.1525 118.001C45.224 119.692 28.8715 124.506 36.3489 139.046C38.6573 143.535 46.1355 145.622 51.4038 143.12C57.2843 140.326 64.5262 133.484 72.1427 133.484C80.9503 133.484 82.4838 140.699 93.6643 144.524C100.527 146.872 121.175 147.2 121.175 147.2Z" fill="white"/>
<path fill-rule="evenodd" clip-rule="evenodd" d="M145.939 198.651C145.939 198.651 151.016 204.193 153.12 207.758C155.223 211.324 154.486 213.258 157.407 214.905C161.795 217.381 166.317 216.757 168.329 215.44C170.342 214.124 168.454 210.754 164.236 210.754C163.198 210.754 161.978 208.371 161.387 206.795C160.796 205.22 161.066 201.34 161.066 201.34L145.939 198.651Z" fill="white"/>
<path fill-rule="evenodd" clip-rule="evenodd" d="M240.507 124.307C240.507 124.307 273.588 164.881 227.067 188.697C194.531 205.354 141.076 196.361 141.076 196.361C141.076 196.361 199.268 212.004 237.301 193.144C261.57 181.11 266.37 160.654 254.792 139.828C251.763 134.378 240.507 124.307 240.507 124.307Z" fill="#E7EAEE"/>
<path fill-rule="evenodd" clip-rule="evenodd" d="M238.564 122.284C238.98 121.732 239.63 121.725 240.115 122.026C241.677 122.995 244.502 125.342 247.22 128.094C250.992 131.914 254.36 136.242 256.942 140.908C264.013 153.681 263.381 167.054 254.408 180.157C246.476 191.739 230.958 198.73 209.175 201.861C190.122 204.6 168.066 204.221 149.79 200.351L148.873 200.154C138.414 197.871 130.703 194.97 124.869 190.488C117.217 184.608 113.648 176.381 114.871 165.316C116.723 148.568 123.345 139.26 133.326 136C137.037 134.787 141.011 134.489 145.113 134.894C147.926 135.172 150.288 135.695 152.788 136.433L153.232 136.566C155.949 137.389 158.26 138.299 161.826 139.878L164.461 141.059C169.923 143.507 173.083 144.668 177.175 145.493C182.323 146.531 187.991 146.653 194.869 145.713L195.889 145.568C201.503 144.75 204.517 144.007 206.309 142.863C208.407 141.525 209.156 139.356 208.856 136.353C208.719 134.987 208.38 133.546 207.845 131.866L207.697 131.413C207.466 130.726 206.791 128.798 206.666 128.378C206.512 127.859 206.442 127.498 206.467 127.162C206.53 126.318 207.27 125.797 208.097 126.046C212.471 127.361 215.613 131.182 217.542 137.375C217.714 137.925 217.407 138.51 216.857 138.681C216.307 138.852 215.722 138.545 215.551 137.996C214.082 133.281 211.937 130.214 209.129 128.716L208.944 128.621L209.704 130.835L209.724 130.899C211.652 139.121 210.22 145.568 197.252 147.56C196.538 147.67 182.197 148.904 176.243 147.43C167.223 145.198 154.421 136.868 146.746 136.566C139.072 136.263 137.384 136.868 133.974 137.982C124.825 140.971 117.216 150.652 115.68 166.64C114.869 175.082 119.43 183.637 126.908 188.906C145.939 202.317 190.072 202.956 208.878 200.252C230.14 197.196 246.066 189.978 253.599 178.979C262.092 166.577 261.829 154.043 255.117 141.918C252.634 137.432 249.382 133.252 245.735 129.559C244.075 127.878 242.377 126.357 240.998 125.249L240.766 125.064L240.968 125.859L241.614 128.341L241.849 129.27C241.886 129.417 241.921 129.56 241.956 129.702L242.079 130.212C242.515 132.045 242.781 133.468 242.871 134.607C243.12 137.754 242.209 140.042 240.091 141.279C239.594 141.57 238.955 141.402 238.664 140.905C238.374 140.407 238.541 139.769 239.039 139.478C240.383 138.692 240.982 137.187 240.791 134.772C240.711 133.762 240.461 132.424 240.047 130.682L239.93 130.197C239.879 129.99 239.826 129.777 239.77 129.556L238.861 126.043C238.726 125.511 238.624 125.093 238.543 124.729L238.519 124.622C238.38 123.989 238.308 123.536 238.304 123.195C238.299 122.846 238.349 122.568 238.564 122.284Z" fill="#00160A"/>
<path fill-rule="evenodd" clip-rule="evenodd" d="M216.043 134.358L216.788 134.232C221.709 133.421 225.68 133.127 228.714 133.357C231.916 133.599 235.31 134.465 238.896 135.949C239.369 136.145 239.594 136.687 239.398 137.16C239.202 137.633 238.66 137.858 238.187 137.662C234.774 136.25 231.57 135.433 228.574 135.206C225.564 134.978 221.487 135.302 216.358 136.185C215.853 136.272 215.374 135.933 215.287 135.429C215.2 134.924 215.539 134.445 216.043 134.358Z" fill="#00160A"/>
<path fill-rule="evenodd" clip-rule="evenodd" d="M221.973 130.198C224.194 129.742 226.222 129.978 228.032 130.912C229.764 131.807 231.265 132.933 232.532 134.288C232.796 134.571 232.781 135.016 232.498 135.281C232.214 135.546 231.77 135.531 231.505 135.247C230.35 134.011 228.979 132.982 227.387 132.16C225.873 131.378 224.172 131.181 222.256 131.574C221.876 131.652 221.505 131.407 221.427 131.027C221.349 130.647 221.593 130.276 221.973 130.198Z" fill="#00160A"/>
<path fill-rule="evenodd" clip-rule="evenodd" d="M226.464 126.519C226.663 126.186 227.094 126.078 227.427 126.277C229.208 127.342 230.683 128.534 231.848 129.854C233.024 131.187 233.99 132.891 234.75 134.962C234.884 135.326 234.697 135.729 234.333 135.863C233.969 135.997 233.565 135.81 233.431 135.445C232.729 133.53 231.848 131.978 230.795 130.784C229.73 129.578 228.368 128.477 226.706 127.483C226.373 127.284 226.264 126.852 226.464 126.519Z" fill="#00160A"/>
<path fill-rule="evenodd" clip-rule="evenodd" d="M206.11 143.211C206.404 142.791 206.982 142.69 207.402 142.983C207.821 143.277 198.87 156.024 198.87 158.498C198.87 161.18 200.187 162.975 203.697 165.806L205.184 166.988L205.616 167.335C207.792 169.093 209.059 170.326 210.136 171.891C211.641 174.079 212.35 176.522 212.169 179.42C211.947 182.993 210.868 185.463 208.732 188.313L208.538 188.568C208.298 188.878 207.241 190.228 206.951 190.624C205.917 192.035 205.431 193.098 205.342 194.346C204.953 199.844 207.54 206.483 213.158 214.238C213.458 214.652 213.366 215.232 212.951 215.533C212.536 215.833 211.957 215.74 211.656 215.326C205.806 207.25 203.067 200.221 203.493 194.215C203.606 192.622 204.187 191.301 205.317 189.72L205.455 189.528C205.788 189.074 207.001 187.527 207.103 187.393C209.138 184.723 212.081 180.817 209.725 173.383C208.538 169.64 197.276 166.988 196.905 159.022C196.818 157.145 199.947 152.008 206.11 143.211Z" fill="#00160A"/>
<path d="M209.519 181.754L208.225 181.768C200.566 181.866 195.907 182.252 194.468 182.869L194.416 182.892C192.299 183.863 190.635 185.179 189.362 186.756C188.374 187.981 187.676 189.294 187.219 190.604C187.083 190.995 186.978 191.36 186.899 191.692L186.846 191.928L189.061 194.767C189.084 194.796 189.104 194.825 189.122 194.855L189.144 194.885L189.214 194.987C189.692 195.681 190.235 196.36 190.934 197.151L191.256 197.509C191.83 198.136 193.658 200.105 194.278 200.814C195.607 202.331 196.725 203.79 197.797 205.465C199.43 208.018 200.87 210.967 202.163 214.538L202.256 214.799L202.349 215.067C202.462 215.398 202.572 215.737 202.692 216.12L203.238 217.91C204.044 220.55 204.607 221.762 205.5 222.496L205.65 222.616C206.82 223.527 207.911 223.752 210.942 223.848L211.828 223.873C215.859 223.983 217.961 220.783 215.655 218.457C214.931 217.728 212.546 217.163 208.645 216.926C208.134 216.895 208.614 215.578 208.645 215.067C208.676 214.556 209.115 214.167 209.627 214.198C210.079 214.225 210.513 214.257 210.929 214.292C205.762 206.804 203.24 200.423 203.641 194.767C203.754 193.174 203.583 192.551 204.713 190.969L204.929 190.673C205.34 190.124 206.404 188.767 206.499 188.642C207.369 187.501 207.975 186.566 208.462 185.545L208.557 185.34L208.589 185.266L208.643 185.147C208.899 184.561 209.17 183.553 209.446 182.139L209.519 181.754Z" fill="white"/>
<path fill-rule="evenodd" clip-rule="evenodd" d="M187.744 190.853C188.475 192.984 189.749 194.284 191.523 196.298L191.773 196.577C192.216 197.065 194.225 199.228 194.882 199.978C196.211 201.495 197.329 202.954 198.401 204.629C200.034 207.182 201.474 210.131 202.767 213.702C202.829 213.874 202.891 214.05 202.953 214.231L203.122 214.738C203.16 214.854 203.198 214.973 203.237 215.096L203.458 215.808C203.571 216.178 203.8 216.936 203.842 217.074L203.964 217.469C204.707 219.837 205.257 220.963 206.104 221.66L206.254 221.78C207.374 222.652 208.422 222.896 211.17 222.999L212.432 223.037C216.463 223.147 218.565 219.947 216.259 217.621C215.535 216.892 213.15 216.327 209.249 216.09C208.738 216.059 208.349 215.619 208.38 215.108C208.411 214.597 208.85 214.208 209.361 214.239L209.848 214.271C213.922 214.553 216.455 215.185 217.575 216.316C221.185 219.956 217.971 224.941 212.547 224.893L211.894 224.877C208.021 224.773 206.633 224.495 204.926 223.092C203.709 222.091 203.048 220.745 202.198 218.033L201.647 216.227L201.471 215.66C201.395 215.422 201.323 215.202 201.252 214.989L201.198 214.83C201.14 214.66 201.082 214.494 201.023 214.333C199.776 210.889 198.396 208.064 196.838 205.628C195.899 204.159 194.921 202.865 193.777 201.533L193.487 201.2C192.818 200.435 190.638 198.09 190.334 197.751C188.357 195.541 187.176 193.756 186.333 191.403L186.247 191.158C184.607 186.374 182.502 184.742 179.751 185.761C179.271 185.939 173.898 188.517 179.102 185.056C184.306 181.596 187.744 190.853 187.744 190.853Z" fill="#00160A"/>
<path fill-rule="evenodd" clip-rule="evenodd" d="M220.098 157.916C219.088 157.916 217.638 155.014 217.638 153.596C217.638 152.178 221.266 152.658 221.266 152.658C221.266 152.658 225.076 153.169 224.551 154.595C224.025 156.021 220.66 157.916 220.098 157.916Z" fill="#FFB61D"/>
<ellipse cx="214.126" cy="147.477" rx="2.00083" ry="3.73772" fill="#00160A"/>
<ellipse cx="233.261" cy="148.322" rx="2.19277" ry="3.67919" fill="#00160A"/>
<path fill-rule="evenodd" clip-rule="evenodd" d="M231.83 154.499C233.501 153.782 235.349 153.646 237.356 154.084C239.318 154.513 245.231 158.213 245.024 158.541C244.817 158.869 238.83 155.844 237.056 155.457C235.326 155.079 233.775 155.193 232.385 155.79C232.028 155.943 231.615 155.778 231.462 155.422C231.309 155.065 231.474 154.652 231.83 154.499Z" fill="#00160A"/>
<path fill-rule="evenodd" clip-rule="evenodd" d="M232.894 156.927C234.647 157.02 235.104 156.62 237.506 158.179C239.908 159.738 241.703 163.409 241.374 163.616C241.046 163.822 239.129 160.547 236.929 158.899C234.729 157.25 232.135 157.979 232.156 157.591C232.175 157.225 232.471 156.94 232.83 156.926L232.894 156.927Z" fill="#00160A"/>
<path fill-rule="evenodd" clip-rule="evenodd" d="M220.718 159.437C220.231 162.465 220.353 164.392 220.536 166.542C220.718 168.693 222.437 171.789 222.61 173.083C222.782 174.377 219.358 169.041 219.151 166.778C218.944 164.516 217.476 158.366 220.04 158.652C220.04 158.652 220.772 159.101 220.718 159.437Z" fill="#00160A"/>
<path fill-rule="evenodd" clip-rule="evenodd" d="M207.959 154.869C209.516 154.869 210.147 154.908 211.663 155.206C212.044 155.281 212.292 155.65 212.217 156.031C212.142 156.411 211.772 156.659 211.392 156.584C210.852 156.478 209.817 156.027 208.102 156.045C205.756 156.07 203.715 157.371 203.613 157.156C203.447 156.805 206.402 154.869 207.959 154.869Z" fill="#00160A"/>
<path fill-rule="evenodd" clip-rule="evenodd" d="M210.506 151.853C210.883 151.942 211.117 152.32 211.028 152.698C210.939 153.076 210.561 153.31 210.183 153.22C206.81 152.425 204.104 152.446 202.195 152.372C200.318 152.298 196.107 152.593 195.984 152.225C195.86 151.857 207.053 151.039 210.506 151.853Z" fill="#00160A"/>
<path fill-rule="evenodd" clip-rule="evenodd" d="M226.153 196.573C226.665 196.582 227.072 197.004 227.063 197.516C227.03 199.406 227.295 200.741 227.805 201.509C229.948 204.731 231.766 206.904 233.47 207.627C233.517 207.647 233.628 207.675 233.8 207.709L234.056 207.755C234.247 207.787 235.057 207.909 235.198 207.931C235.731 208.015 236.171 208.096 236.599 208.193C237.546 208.408 238.333 208.682 238.985 209.063C240.944 210.208 242.237 211.881 242.362 213.526C242.508 215.428 241.126 216.847 238.683 217.293C232.686 218.387 228.487 217.314 226.276 213.983C223.974 210.72 221.675 208.013 219.382 205.863C217.126 203.747 215.124 202.386 213.396 201.774C212.914 201.603 212.661 201.073 212.832 200.59C213.003 200.108 213.533 199.855 214.016 200.026C216.02 200.737 218.224 202.234 220.651 204.51C223.041 206.752 225.42 209.553 227.806 212.935C229.549 215.56 233.006 216.443 238.351 215.469C239.936 215.18 240.579 214.519 240.514 213.668C240.44 212.709 239.528 211.528 238.049 210.664C237.587 210.394 236.967 210.178 236.189 210.002C235.854 209.926 235.505 209.86 235.09 209.792L233.75 209.583L233.491 209.538C233.171 209.477 232.942 209.417 232.746 209.334C231.472 208.793 230.162 207.63 228.791 205.99C227.887 204.909 227.193 203.936 226.261 202.536C225.503 201.396 225.17 199.716 225.209 197.483C225.218 196.971 225.641 196.564 226.153 196.573Z" fill="#00160A"/>
<path fill-rule="evenodd" clip-rule="evenodd" d="M233.641 213.677C233.733 213.37 234.056 213.196 234.362 213.287C235.317 213.573 235.992 213.888 236.405 214.262C236.795 214.617 237.182 215.163 237.577 215.902C237.728 216.185 237.622 216.536 237.34 216.687C237.057 216.838 236.706 216.731 236.555 216.449C236.217 215.816 235.902 215.371 235.625 215.12C235.37 214.888 234.833 214.638 234.031 214.398C233.724 214.306 233.55 213.983 233.641 213.677Z" fill="#00160A"/>
<path fill-rule="evenodd" clip-rule="evenodd" d="M236.664 212.45C236.765 212.147 237.094 211.982 237.397 212.084C238.215 212.356 238.822 212.666 239.226 213.032C239.626 213.396 240.011 213.984 240.4 214.803C240.537 215.092 240.414 215.438 240.125 215.575C239.835 215.712 239.49 215.589 239.353 215.3C239.023 214.605 238.714 214.133 238.447 213.89C238.183 213.651 237.709 213.409 237.031 213.183C236.728 213.082 236.563 212.754 236.664 212.45Z" fill="#00160A"/>
<path fill-rule="evenodd" clip-rule="evenodd" d="M211.857 220.436C211.958 220.132 212.286 219.968 212.59 220.069C213.407 220.341 214.015 220.651 214.419 221.018C214.819 221.381 215.203 221.969 215.592 222.789C215.729 223.078 215.606 223.423 215.317 223.56C215.028 223.698 214.683 223.575 214.545 223.286C214.215 222.591 213.907 222.118 213.639 221.875C213.376 221.636 212.902 221.394 212.224 221.168C211.92 221.067 211.756 220.739 211.857 220.436Z" fill="#00160A"/>
<path fill-rule="evenodd" clip-rule="evenodd" d="M213.543 218.469C213.644 218.165 213.972 218.001 214.276 218.102C215.093 218.374 215.701 218.684 216.105 219.051C216.505 219.415 216.889 220.002 217.278 220.822C217.416 221.111 217.292 221.456 217.003 221.594C216.714 221.731 216.369 221.608 216.231 221.319C215.902 220.624 215.593 220.151 215.325 219.909C215.062 219.669 214.588 219.427 213.91 219.201C213.606 219.1 213.442 218.772 213.543 218.469Z" fill="#00160A"/>
<path fill-rule="evenodd" clip-rule="evenodd" d="M145.312 197.967C145.69 197.621 152.09 204.961 153.462 207.287C153.905 208.037 154.254 208.758 154.564 209.531C154.66 209.768 154.749 210.004 154.846 210.27L155.209 211.297C155.749 212.798 156.646 213.411 157.863 214.098C161.432 216.112 165.647 216.087 167.822 214.664C169.028 213.875 167.399 211.681 164.236 211.681C162.757 211.681 161.486 209.699 160.519 207.121C160.066 205.913 159.953 203.985 160.142 201.276C160.177 200.765 160.62 200.38 161.131 200.415C161.642 200.451 162.027 200.894 161.991 201.405C161.82 203.868 161.92 205.576 162.255 206.47L162.353 206.722C163.004 208.355 163.962 209.827 164.236 209.827C166.465 209.827 168.35 210.685 169.364 212.051C170.436 213.495 170.294 215.262 168.837 216.216C166.065 218.029 161.108 218.058 156.951 215.713C155.345 214.806 154.641 213.867 153.982 212.094L153.628 211.097C153.51 210.764 153.409 210.493 153.3 210.222C153.023 209.533 152.714 208.895 152.321 208.229C150.957 205.918 148.6 202.928 145.255 199.277C144.909 198.899 144.935 198.313 145.312 197.967Z" fill="#00160A"/>
<path fill-rule="evenodd" clip-rule="evenodd" d="M162.481 213.677C162.573 213.37 162.895 213.196 163.202 213.287C164.157 213.573 164.832 213.888 165.245 214.262C165.635 214.617 166.022 215.163 166.417 215.902C166.568 216.185 166.462 216.536 166.18 216.687C165.897 216.838 165.546 216.731 165.395 216.449C165.057 215.816 164.742 215.371 164.465 215.12C164.21 214.888 163.673 214.638 162.87 214.398C162.564 214.306 162.389 213.983 162.481 213.677Z" fill="#00160A"/>
<path fill-rule="evenodd" clip-rule="evenodd" d="M164.661 212.731C164.762 212.428 165.09 212.263 165.394 212.365C166.212 212.637 166.819 212.947 167.223 213.313C167.623 213.677 168.008 214.265 168.397 215.084C168.534 215.373 168.411 215.719 168.122 215.856C167.832 215.993 167.487 215.87 167.35 215.581C167.02 214.886 166.711 214.414 166.444 214.171C166.18 213.932 165.706 213.69 165.028 213.464C164.725 213.363 164.56 213.035 164.661 212.731Z" fill="#00160A"/>
<path fill-rule="evenodd" clip-rule="evenodd" d="M57.7829 114.67L57.587 114.805C56.9666 115.238 55.7719 116.11 55.5088 116.295L55.4817 116.314C54.8001 116.784 54.3397 117.021 53.9799 117.089C47.6231 118.294 42.1331 119.642 38.3751 122.487C33.1203 126.465 30.2818 133.422 33.8823 140.423C36.4443 145.405 46.13 146.651 51.8016 143.957C52.772 143.496 53.8056 142.919 55.0526 142.156L55.571 141.836C55.7504 141.724 55.9349 141.609 56.1313 141.484L57.4892 140.618L58.9738 139.667L59.5172 139.323C64.976 135.894 68.4441 134.411 72.1427 134.411C75.2 134.411 77.3514 135.25 80.0542 137.233L80.258 137.384C80.7273 137.735 83.7732 140.164 84.8016 140.913C87.4664 142.853 90.0975 144.284 93.3642 145.401L93.6515 145.497C98.4322 147.044 107.577 147.911 121.16 148.127C121.464 148.132 121.75 147.988 121.927 147.742L122.457 147.01C123.218 145.967 123.828 145.163 124.286 144.6C124.837 143.925 125.406 143.306 125.993 142.743C126.565 142.195 126.231 141.229 125.444 141.151L124.626 141.068C111.368 139.688 102.443 137.276 97.9043 133.898L97.5734 133.65C95.1529 131.82 92.8412 129.754 89.3173 126.373L84.7636 121.999C82.9631 120.284 82.3303 119.726 81.069 118.655L80.8714 118.487C77.9226 115.986 75.364 114.272 72.8822 113.249C72.3376 113.025 71.7982 112.835 71.263 112.68C65.7365 111.083 61.7691 111.97 57.7829 114.67ZM70.7482 114.461C71.2169 114.597 71.6924 114.764 72.1757 114.963C74.3749 115.87 76.7027 117.411 79.4011 119.672L80.457 120.57C81.6193 121.569 82.424 122.317 85.1027 124.891L88.2794 127.947C91.8769 131.391 94.2333 133.477 96.7971 135.385L96.9477 135.496C101.605 138.879 110.066 141.257 122.374 142.685L123.381 142.799L123.367 142.815C123.25 142.948 123.135 143.083 123.02 143.221L122.767 143.53L122.574 143.772C122.207 144.237 121.77 144.814 121.262 145.503L120.706 146.265L119.579 146.244C106.802 145.984 98.2404 145.11 93.9645 143.647C91.004 142.634 88.6068 141.353 86.1839 139.624L85.893 139.414C84.9059 138.695 81.8721 136.275 81.3678 135.899C78.273 133.587 75.7243 132.557 72.1427 132.557C67.9908 132.557 64.2789 134.142 58.5402 137.747L57.6582 138.307L55.7669 139.519C55.2056 139.877 54.762 140.157 54.3308 140.423L53.8518 140.716C52.7605 141.377 51.8492 141.882 51.006 142.282C46.198 144.566 39.2539 142.667 37.1734 138.622C33.9914 132.434 35.111 127.887 39.6582 124.444C43.1319 121.814 48.2271 120.067 54.3251 118.911C54.9634 118.79 55.5785 118.485 56.381 117.945L56.5338 117.841C56.7716 117.677 58.2145 116.623 58.7652 116.244L58.8226 116.205C62.3828 113.794 65.7969 113.031 70.7482 114.461Z" fill="#00160A"/>
<path fill-rule="evenodd" clip-rule="evenodd" d="M292.791 139.659L292.703 139.871L292.527 140.31C290.247 146.095 288.234 154.958 286.476 166.922L286.374 167.625L286.368 167.59C285.687 163.578 284.828 160.461 283.782 158.229C281.964 154.349 279.375 152.885 276.315 154.277C266.385 158.794 266.977 177.163 277.493 209.443C277.633 209.873 278.033 210.163 278.485 210.163H289.902C290.208 210.163 290.499 210.028 290.697 209.795C304.954 192.98 311.338 181.676 309.777 175.465L309.726 175.268C308.306 169.925 304.755 168.781 299.69 171.652L299.51 171.755L299.762 171.174C308.549 150.82 310.161 138.287 304.224 133.403C299.865 129.817 295.888 132.189 292.791 139.659ZM303.069 134.208C308.295 138.508 306.438 152.589 296.523 174.413C296.07 175.411 307.754 167.59 307.754 175.974L307.792 176.133C308.916 181.293 303.111 191.711 290.31 207.016L289.417 208.077L278.485 208.856C278.485 208.856 263.746 160.193 277.179 156.176C281.044 155.02 283.896 160.633 285.31 175.816C285.426 177.059 287.232 177.086 287.384 175.846L287.508 174.846C289.54 158.607 291.951 147.131 294.718 140.457L294.876 140.081C297.461 134.03 300.148 131.806 303.069 134.208Z" fill="#00160A"/>
<path d="M302.899 135.014C308.125 139.314 306.008 152.48 296.093 174.304C295.64 175.302 296.835 176.234 297.693 175.551L298.041 175.277C303.674 170.892 306.562 171.227 307.754 175.973L307.792 176.133C308.916 181.293 303.11 191.711 290.31 207.016L289.417 208.077H279.243L278.878 206.94C269.286 176.878 268.908 159.938 277.179 156.176C280.994 154.44 283.896 160.633 285.31 175.816C285.426 177.059 287.232 177.086 287.384 175.846L287.508 174.846C289.54 158.607 291.951 147.131 294.718 140.457L294.876 140.081C297.461 134.03 299.978 132.611 302.899 135.014Z" fill="white"/>
<ellipse cx="275.719" cy="169.474" rx="3.70856" ry="3.70843" fill="#E7EAEE"/>
<ellipse cx="298.898" cy="145.37" rx="3.70851" ry="3.7084" fill="#E7EAEE"/>
<ellipse cx="300.752" cy="181.063" rx="3.70854" ry="3.70843" fill="#E7EAEE"/>
<path fill-rule="evenodd" clip-rule="evenodd" d="M104.189 212.739C97.6431 212.843 75.1316 214.511 74.7427 213.675C74.2452 212.607 98.7939 211.202 104.145 211.117L105.821 211.095C110.686 211.042 104.189 212.739 104.189 212.739ZM200.482 210.57C201.058 210.554 201.537 211.009 201.552 211.585C201.568 212.16 201.113 212.64 200.537 212.655L191.22 212.885C185.421 213.018 178.699 213.156 168.767 213.352C168.191 213.363 167.715 212.905 167.704 212.329C167.692 211.753 168.15 211.277 168.726 211.266L186.314 210.908C191.653 210.792 195.943 210.689 200.482 210.57ZM224.514 210.083C225.09 210.074 225.564 210.534 225.573 211.11C225.582 211.686 225.123 212.16 224.547 212.169L222.103 212.199L214.624 212.251C213.059 212.267 211.833 212.288 210.388 212.323C209.812 212.338 209.334 211.882 209.32 211.306C209.306 210.731 209.761 210.252 210.337 210.238L212.176 210.199C213.381 210.177 214.605 210.163 216.231 210.151L222.449 210.11C223.172 210.103 223.826 210.094 224.514 210.083ZM292.111 208.077C292.111 208.077 293.984 207.754 307.656 208.777C308.23 208.82 308.661 209.321 308.618 209.895C308.575 210.47 301.814 210.18 292.572 210.163L290.03 210.167C283.243 210.198 276.938 210.381 266.475 210.812L253.268 211.37C247.632 211.6 244.269 211.713 240.181 211.809C239.605 211.823 239.127 211.367 239.113 210.791C239.1 210.215 239.555 209.738 240.131 209.724L243.415 209.638C247.321 209.525 251.334 209.368 258.45 209.064L265.996 208.744C277.794 208.256 284.355 208.077 292.111 208.077Z" fill="#00160A"/>
<path d="M260.507 57.9403L260.746 57.5008C262.617 54.1134 264.246 52.4317 266.145 52.9803C266.299 53.0248 266.451 53.0855 266.598 53.1621C267.763 53.7657 268.042 54.888 267.716 56.4195L267.694 56.5138L267.749 56.4351C268.301 55.6515 268.827 55.0463 269.373 54.5971L269.49 54.5033C270.703 53.5592 271.989 53.4715 273.154 54.455C275.015 56.0255 274.804 58.6596 273.285 60.2809L273.201 60.3683C272.99 60.5818 272.862 61.0437 272.721 62.1308L272.598 63.0833C272.451 64.1823 272.352 64.6643 272.12 65.4088C271.682 66.8149 270.964 67.9879 269.846 68.9458C268.441 70.15 266.07 69.982 262.73 68.6094C262.371 68.4619 262.2 68.0515 262.347 67.6927C262.494 67.3339 257.662 63.0722 257.516 63.2591L257.469 63.3134C257.2 63.5931 256.755 63.602 256.475 63.3333L255.796 62.6792C255.388 62.2849 255.591 61.5937 256.149 61.4844C257.17 61.284 257.962 61.063 258.518 60.827C258.986 60.6288 259.241 60.4392 259.302 60.3162C259.302 60.3162 260.316 58.2954 260.507 57.9403Z" fill="white"/>
<path fill-rule="evenodd" clip-rule="evenodd" d="M255.494 61.5547C254.31 61.4658 253.614 62.3659 253.614 63.4555C253.614 67.2273 259.776 72.3854 263.792 72.3854C264.969 72.3854 265.932 71.5435 265.59 70.2566C265.461 69.7717 265.164 69.3413 264.678 68.811L264.571 68.6958C264.024 68.1153 263.459 67.5968 262.191 66.5061L260.25 64.8422C259.773 64.4299 259.016 63.7724 258.787 63.5766L258.511 63.3425C257.981 62.895 257.57 62.5691 257.204 62.3101C256.556 61.8524 256.054 61.5968 255.494 61.5547ZM255.018 63.4554C255.018 61.9808 257.131 64.0195 259.674 66.2014L261.364 67.6467C263.432 69.4297 265.956 71.2845 264.678 71.4206C260.628 71.8517 255.018 66.4813 255.018 63.4554Z" fill="#00160A"/>
<path fill-rule="evenodd" clip-rule="evenodd" d="M255.818 51.6702C256.108 51.4129 257.558 50.4005 256.81 51.7299C256.061 53.0594 251.731 54.7455 256.061 61.4685C256.225 61.7242 256.025 62.2373 255.664 62.3791C255.302 62.5209 254.895 62.3431 254.753 61.982C253.658 59.194 253.152 57.1758 253.249 55.8638C253.352 54.4734 254.224 53.0827 255.818 51.6702Z" fill="#00160A"/>
<path fill-rule="evenodd" clip-rule="evenodd" d="M250.409 54.0109C250.485 53.6305 251.235 52.6893 251.235 53.4603C251.235 54.2313 250.132 56.187 251.685 58.3907C253.237 60.5945 255.908 62.0891 255.68 62.4026C255.452 62.7162 255.012 62.7852 254.699 62.5568C252.451 60.9195 251.086 59.6387 250.572 58.6346C250.036 57.5871 249.999 56.0541 250.409 54.0109Z" fill="#00160A"/>
<path fill-rule="evenodd" clip-rule="evenodd" d="M260.507 57.9403L260.746 57.5008C262.617 54.1134 264.246 52.4317 266.145 52.9803C266.299 53.0248 266.451 53.0855 266.598 53.1621C267.763 53.7657 268.042 54.888 267.716 56.4195L267.694 56.5138L267.749 56.4351C268.301 55.6515 268.827 55.0463 269.373 54.5971L269.49 54.5033C270.703 53.5592 271.989 53.4715 273.154 54.455C275.015 56.0255 274.804 58.6596 273.285 60.2809L273.201 60.3683C272.99 60.5818 272.862 61.0437 272.721 62.1308L272.598 63.0833C272.451 64.1823 272.352 64.6643 272.12 65.4088C271.682 66.8149 270.964 67.9879 269.846 68.9458C268.441 70.15 266.07 69.982 262.73 68.6094C262.371 68.4619 262.2 68.0515 262.347 67.6927C262.494 67.3339 267.552 70.2725 269.49 67.988C271.428 65.7035 271.637 60.9779 272.196 59.5457L272.331 59.296C273.403 58.2126 273.439 56.5333 272.248 55.5285C271.634 55.01 271.077 55.048 270.353 55.6119C269.693 56.1256 269.005 57.0077 268.211 58.2911L267.979 58.6739C267.589 59.3322 266.807 60.6972 266.704 60.8707L266.561 61.1071C266.08 61.8933 265.466 62.3856 265.375 62.4067C265.284 62.4279 265.155 62.3548 265.123 61.6898C265.113 61.4711 265.168 61.251 265.284 60.9517L265.331 60.8355C265.472 60.4926 266.248 58.8804 266.301 58.7648C266.536 58.2571 266.726 57.8146 266.883 57.3972C267.514 55.7148 266.574 54.732 265.952 54.4094C265.885 54.3748 265.82 54.3486 265.756 54.33C264.791 54.0514 263.448 55.4836 261.881 58.3531L261.541 58.988C261.29 59.4669 261.044 59.9595 260.561 60.9381C260.21 61.6497 259.273 62.1597 257.71 62.5712L257.624 62.5928L257.631 62.6133C257.7 62.8292 257.662 63.0722 257.516 63.2591L257.469 63.3134C257.2 63.5931 256.755 63.602 256.475 63.3333L255.796 62.6792C255.388 62.2849 255.591 61.5937 256.149 61.4844C257.17 61.284 257.962 61.063 258.518 60.827C258.986 60.6288 259.241 60.4392 259.302 60.3162L259.958 58.9954C260.16 58.5958 260.316 58.2954 260.507 57.9403Z" fill="#00160A"/>
<ellipse cx="269.724" cy="60.0886" rx="1.59598" ry="1.30844" fill="#FFB61D"/>
<ellipse cx="265.164" cy="56.4408" rx="1.59601" ry="1.30844" fill="#FFB61D"/>
<path fill-rule="evenodd" clip-rule="evenodd" d="M255.353 65.6177C255.13 65.4201 254.852 65.0638 254.606 64.6782L254.29 64.8186L253.917 64.9786C253.842 65.0129 253.793 65.0398 253.778 65.0616C253.735 65.1418 253.636 65.1723 253.555 65.1297C253.476 65.0873 253.444 64.9879 253.487 64.9079C253.517 64.8318 253.727 64.5933 254.116 64.36C254.187 64.3177 254.265 64.2784 254.349 64.24C254.205 63.9712 254.092 63.7115 254.039 63.5032C253.959 63.1961 254.023 62.9785 254.129 62.902C254.232 62.8264 254.491 62.8123 254.885 63.1399C254.958 63.1951 254.97 63.2984 254.914 63.3702C254.859 63.4418 254.757 63.455 254.684 63.3997C254.609 63.3443 254.533 63.313 254.472 63.2903L254.502 63.4079C254.513 63.4498 254.528 63.4937 254.548 63.5364C254.619 63.6911 254.708 63.8677 254.809 64.049C255.118 63.9324 255.469 63.8268 255.848 63.7759C256.033 63.751 256.221 63.7462 256.417 63.7478C256.53 63.7404 256.627 63.8258 256.635 63.9386C256.642 64.0511 256.557 64.1486 256.444 64.156C255.988 64.2 255.566 64.3152 255.194 64.4448L255.072 64.4887C255.273 64.8036 255.489 65.0896 255.674 65.251C255.774 65.3397 255.784 65.4939 255.697 65.595C255.607 65.6965 255.453 65.7066 255.353 65.6177Z" fill="#FFB61D"/>
<path fill-rule="evenodd" clip-rule="evenodd" d="M148.121 191.068C146.968 196.502 141.402 198.042 141.462 202.417C141.494 204.679 142.118 206.556 142.631 207.999C143.674 210.934 146.392 213.956 147.65 216.755C148.726 219.147 154.123 217.529 154.554 221.246C154.789 223.271 150.971 224.437 149.932 224.516C148.44 224.629 146.55 224.116 144.26 222.979C141.476 221.626 139.24 220.56 137.622 218.611C137.307 218.231 137.108 217.157 136.759 215.47C136.378 213.623 135.073 208.928 131.665 201.348C131.178 200.266 129.314 195.835 127.242 191.304C125.532 187.564 132.6 180.073 135.733 180.335C143.431 180.979 148.935 187.23 148.121 191.068Z" fill="white"/>
<path fill-rule="evenodd" clip-rule="evenodd" d="M142.723 223.06C140.807 221.919 139.231 220.604 137.995 219.115C137.679 218.735 137.447 217.335 137.098 215.647C136.915 214.762 130.262 198.802 128.068 192.794C127.658 191.673 128.652 192.458 128.886 192.794C130.159 194.629 137.995 206.731 141.739 217.943" fill="#E7EAEE"/>
<path fill-rule="evenodd" clip-rule="evenodd" d="M144.217 222.583L144.502 222.723C146.655 223.793 148.393 224.264 149.691 224.165C151.084 224.06 153.359 222.803 153.46 221.733C153.621 220.016 153.156 219.528 150.858 218.66C150.192 218.409 148.39 218.464 145.612 218.884C145.106 218.961 144.634 218.612 144.557 218.106C144.48 217.6 144.829 217.127 145.335 217.051L145.792 216.983C148.632 216.577 150.494 216.541 151.513 216.926L151.816 217.042C154.574 218.133 155.555 219.261 155.306 221.907C155.095 224.149 152.018 225.849 149.831 226.014C148.199 226.138 146.234 225.624 143.917 224.501L143.684 224.387C140.786 222.979 138.479 221.249 136.771 219.192C136.546 218.921 136.403 218.561 136.255 218.007L136.221 217.875C136.166 217.661 136.111 217.422 136.048 217.123L135.68 215.32L135.624 215.057C135.019 212.349 133.267 207.351 130.614 201.414L130.209 200.521C129.96 199.977 126.401 194.21 126.135 192.859C125.142 187.806 129.204 185.302 129.204 185.302C129.204 185.302 127.097 189.747 127.691 191.931C128.152 193.63 132.047 199.474 133.432 203.955C134.866 208.592 136.367 213.54 138.559 217.585C140.214 220.639 141.398 222.023 144.217 222.583Z" fill="#00160A"/>
<path fill-rule="evenodd" clip-rule="evenodd" d="M148.713 221.544C148.805 221.237 149.128 221.063 149.434 221.154C150.389 221.439 151.065 221.755 151.477 222.129C151.868 222.484 152.254 223.029 152.649 223.769C152.8 224.052 152.694 224.403 152.412 224.554C152.13 224.704 151.778 224.598 151.628 224.316C151.289 223.683 150.974 223.238 150.697 222.987C150.442 222.755 149.905 222.504 149.103 222.265C148.796 222.173 148.622 221.85 148.713 221.544Z" fill="#00160A"/>
<path fill-rule="evenodd" clip-rule="evenodd" d="M150.331 219.756C150.432 219.452 150.761 219.288 151.064 219.389C151.882 219.661 152.489 219.971 152.893 220.338C153.293 220.701 153.678 221.289 154.067 222.109C154.204 222.398 154.081 222.743 153.792 222.88C153.503 223.018 153.157 222.895 153.02 222.606C152.69 221.911 152.381 221.438 152.114 221.195C151.85 220.956 151.376 220.714 150.698 220.488C150.395 220.387 150.23 220.059 150.331 219.756Z" fill="#00160A"/>
<path fill-rule="evenodd" clip-rule="evenodd" d="M144.53 182.411C146.569 183.231 150.578 187.777 149.958 190.329C149.316 192.969 148.376 194.024 146.879 195.774L146.722 195.955C146.266 196.474 144.381 198.389 144.306 198.469L144.127 198.666C142.447 200.562 141.761 202.658 143.127 206.522C144.128 209.351 145.775 212.568 148.048 215.636C148.348 216.041 149.094 217.229 148.689 217.529C148.284 217.829 147.327 216.86 147.027 216.455C144.651 213.249 142.929 210.142 141.864 207.13C140.254 202.58 140.642 200.705 142.864 198.255L143.005 198.102C143.243 197.855 144.877 196.194 145.309 195.711L145.353 195.662C146.748 194.074 147.668 192.393 148.259 189.962C148.667 188.282 146.952 185.299 143.326 182.879C140.92 181.272 142.491 181.591 144.53 182.411Z" fill="#00160A"/>
</svg>
