<svg width="32" height="32" viewBox="0 0 32 32" fill="none" xmlns="http://www.w3.org/2000/svg">
<path d="M26.2813 4.48482L2.99038 11.0541C2.79444 11.1093 2.62003 11.2231 2.49047 11.3801C2.36091 11.5372 2.28237 11.73 2.26534 11.9329C2.24832 12.1358 2.29362 12.339 2.39519 12.5154C2.49676 12.6919 2.64977 12.8331 2.83376 12.9203L13.5351 17.9893C13.7438 18.0882 13.9119 18.2562 14.0108 18.465L19.0798 29.1663C19.167 29.3503 19.3082 29.5033 19.4846 29.6049C19.6611 29.7065 19.8643 29.7518 20.0672 29.7347C20.2701 29.7177 20.4629 29.6392 20.6199 29.5096C20.777 29.38 20.8907 29.2056 20.946 29.0097L27.5153 5.71873C27.5635 5.54764 27.5653 5.36678 27.5204 5.19478C27.4755 5.02278 27.3856 4.86585 27.2599 4.74016C27.1342 4.61446 26.9773 4.52455 26.8053 4.47966C26.6333 4.43478 26.4524 4.43656 26.2813 4.48482Z" stroke="#FBFBFB" stroke-width="2" stroke-linecap="round" stroke-linejoin="round"/>
<path d="M13.8579 18.1422L19.5148 12.4854" stroke="#FBFBFB" stroke-width="2" stroke-linecap="round" stroke-linejoin="round"/>
</svg>
