<svg width="343" height="127" viewBox="0 0 343 127" fill="none" xmlns="http://www.w3.org/2000/svg">
<g clip-path="url(#clip0_1_1400)">
<rect width="343" height="127" rx="25" fill="url(#paint0_linear_1_1400)"/>
<path d="M33.043 97H38.8828V68.8164H33.0234L25.7383 73.875V79.1094L32.9258 74.2266H33.043V97ZM55.9438 97.4883C63.0922 97.4883 67.4281 91.8828 67.4281 82.918V82.8789C67.4281 73.9141 63.0922 68.3281 55.9438 68.3281C48.7953 68.3281 44.4594 73.9141 44.4594 82.8789V82.918C44.4594 91.8828 48.7953 97.4883 55.9438 97.4883ZM55.9438 92.7617C52.4281 92.7617 50.4164 89.1094 50.4164 82.918V82.8789C50.4164 76.6875 52.4281 73.0547 55.9438 73.0547C59.4594 73.0547 61.4711 76.6875 61.4711 82.8789V82.918C61.4711 89.1094 59.4594 92.7617 55.9438 92.7617ZM81.7938 97.4883C88.9422 97.4883 93.2781 91.8828 93.2781 82.918V82.8789C93.2781 73.9141 88.9422 68.3281 81.7938 68.3281C74.6453 68.3281 70.3094 73.9141 70.3094 82.8789V82.918C70.3094 91.8828 74.6453 97.4883 81.7938 97.4883ZM81.7938 92.7617C78.2781 92.7617 76.2664 89.1094 76.2664 82.918V82.8789C76.2664 76.6875 78.2781 73.0547 81.7938 73.0547C85.3094 73.0547 87.3211 76.6875 87.3211 82.8789V82.918C87.3211 89.1094 85.3094 92.7617 81.7938 92.7617Z" fill="white"/>
<path d="M25.6055 45H32.2617C35.625 45 37.957 42.8906 37.957 39.7734V39.75C37.957 36.6797 35.5781 34.582 32.168 34.582H28.6289V30.6328H36.3516V28.0898H25.6055V45ZM28.6289 42.5156V36.9961H31.4883C33.6328 36.9961 34.875 37.9688 34.875 39.75V39.7734C34.875 41.543 33.6328 42.5156 31.5 42.5156H28.6289ZM45.6389 45.2461C49.2834 45.2461 51.6506 42.8203 51.6506 38.7891V38.7656C51.6506 34.7578 49.2483 32.3203 45.6389 32.3203C42.0178 32.3203 39.6272 34.7812 39.6272 38.7656V38.7891C39.6272 42.8086 41.9827 45.2461 45.6389 45.2461ZM45.6506 42.8906C43.7991 42.8906 42.6038 41.4023 42.6038 38.7891V38.7656C42.6038 36.1875 43.8108 34.6875 45.6389 34.6875C47.4788 34.6875 48.6858 36.1758 48.6858 38.7656V38.7891C48.6858 41.3906 47.5022 42.8906 45.6506 42.8906ZM61.6528 45H64.5708V32.5781H61.6528V37.4766H56.4263V32.5781H53.5083V45H56.4263V39.7383H61.6528V45ZM68.5964 49.125C71.1745 49.125 72.6394 48.1523 73.5769 45.4219L78.0534 32.5781H74.9714L72.0652 42.5156H71.9714L69.0652 32.5781H65.8894L70.3542 45.0117L70.1667 45.5156C69.7917 46.5586 69.1823 46.875 68.0573 46.875C67.6472 46.875 67.3073 46.8164 67.0964 46.7695V48.9961C67.4362 49.0547 68.0222 49.125 68.5964 49.125ZM84.4931 45.2461C87.6338 45.2461 89.7431 43.2773 89.9658 40.6875V40.6055H87.2119L87.1884 40.7109C86.9189 42.0117 85.9931 42.8906 84.5166 42.8906C82.665 42.8906 81.4697 41.3906 81.4697 38.8008V38.7891C81.4697 36.2461 82.6533 34.6875 84.4931 34.6875C86.0517 34.6875 86.9423 35.6602 87.1884 36.8672L87.2002 36.9727H89.9541L89.9423 36.8789C89.7666 34.3945 87.7392 32.3203 84.4697 32.3203C80.8369 32.3203 78.4931 34.8047 78.4931 38.7656V38.7773C78.4931 42.7617 80.8017 45.2461 84.4931 45.2461ZM91.6711 45H96.9797C99.8742 45 101.738 43.3125 101.738 40.6641V40.6406C101.738 37.9922 99.8742 36.3047 96.9797 36.3047H94.5891V32.5781H91.6711V45ZM103.144 45H106.062V32.5781H103.144V45ZM96.5695 38.5547C97.9055 38.5547 98.7609 39.375 98.7609 40.6406V40.6641C98.7609 41.918 97.9172 42.75 96.5695 42.75H94.5891V38.5547H96.5695Z" fill="white"/>
<path fill-rule="evenodd" clip-rule="evenodd" d="M260.686 3C305.995 3 315.534 65.5045 315.719 66.0188C315.91 66.5487 316.09 67.0942 316.264 67.6235C316.618 68.6986 317.072 69.7337 317.426 70.8016C317.642 71.4532 318.04 71.9928 318.306 72.6081C318.823 73.7837 319.456 74.9053 320.196 75.9563C320.501 76.3726 320.741 76.8326 320.908 77.3206C321.025 77.6939 321.412 77.7937 321.579 78.1232C321.85 78.6567 322.211 79.1443 322.523 79.6565C322.594 79.8367 322.757 79.9647 322.95 79.9915L322.889 80.5001C323.002 80.6833 323.041 80.4356 323.159 80.4792C323.307 80.6776 323.518 80.854 323.54 81.1561C323.559 81.4402 323.892 81.4669 324.006 81.7147C324.256 82.2524 324.951 82.5266 324.941 83.2323C325.441 83.5445 325.686 84.0805 326.064 84.5011C326.257 84.6947 326.375 84.9497 326.397 85.2205L326.401 85.2832C326.398 85.5523 326.92 85.4919 326.78 85.8592C327.579 86.4564 327.787 87.4322 328.209 88.2405C328.886 89.5377 329.666 90.7908 330.126 92.2112C330.356 92.9216 330.803 93.5937 331.051 94.3132C331.609 95.9304 332.28 97.5123 332.643 99.1964C332.792 99.8921 333.098 100.555 333.241 101.252L333.406 102.059C333.652 103.269 333.885 104.482 334.04 105.708C334.119 105.984 334.119 106.278 334.04 106.554C333.906 106.869 334.261 107.071 334.289 107.386C334.325 107.761 334.174 108.116 334.282 108.514C334.342 108.733 334.282 109.085 334.351 109.339C334.574 110.166 334.292 111.018 334.534 111.84C334.572 112.157 334.538 112.479 334.436 112.782C334.268 113.793 334.575 114.825 334.269 115.812C334.126 116.299 334.098 116.811 334.189 117.31L334.226 117.502C334.253 117.644 334.271 117.783 334.201 117.878C333.922 118.258 333.994 118.705 333.939 119.119L333.928 119.188C333.848 119.652 333.931 120.139 333.79 120.612C333.597 121.075 333.49 121.568 333.471 122.069C333.542 122.918 333.255 123.679 333.079 124.468C332.991 124.861 333.064 125.329 332.629 125.622C332.407 125.771 332.93 126.06 332.613 126.279L332.576 126.302C332.343 126.432 332.353 126.643 332.419 126.896C332.479 127.126 332.074 127.286 332.189 127.522C332.305 127.758 332.358 128.102 332.222 128.145C331.884 128.256 332.228 128.622 331.944 128.692C331.916 128.707 331.897 128.734 331.892 128.765C331.795 129.652 331.221 130.38 331.079 131.266C330.972 131.795 330.765 132.299 330.469 132.752C330.224 133.189 330.016 133.645 329.847 134.117C329.529 134.909 328.984 135.571 328.677 136.359C328.594 136.573 328.039 136.501 328.321 136.939C327.997 137.053 328.096 137.387 327.965 137.596C327.822 137.754 327.655 137.888 327.47 137.995C327.35 138.465 327.121 138.9 326.8 139.264C326.241 140.079 325.63 140.858 324.971 141.596L324.427 142.202C323.7 143.011 322.95 143.802 321.991 144.359C321.745 144.502 321.857 144.774 321.654 144.921C320.48 145.785 319.397 146.764 318.061 147.418C317.501 147.693 317.022 148.179 316.45 148.465C315.366 149.006 314.36 149.68 313.201 150.102L312.995 150.173C312.257 150.418 311.53 150.788 310.78 151.058C309.241 151.659 307.634 152.075 305.995 152.295L304.984 152.407C304.085 152.506 303.184 152.597 302.276 152.622C301.846 152.633 301.434 152.498 301.041 152.547C300.658 152.595 300.269 152.564 299.898 152.455C299.606 152.374 299.358 152.624 299.043 152.489C298.801 152.339 298.501 152.316 298.24 152.426L298.189 152.45C298.039 152.536 297.745 152.377 297.518 152.326C297.186 152.28 296.859 152.199 296.544 152.086C296.3 151.974 295.988 152.335 295.818 151.951C295.509 152.19 274.518 147.224 255.235 157.307C253.665 158.343 251.827 158.798 250.15 159.602C249.369 159.977 248.493 160.148 247.653 160.404L247.474 160.46C245.991 160.937 244.471 161.262 242.954 161.602C241.559 161.903 240.146 162.112 238.724 162.228C237.702 162.32 236.674 162.362 235.654 162.473C235.241 162.518 234.835 162.228 234.43 162.477C233.521 162.231 232.566 162.53 231.659 162.252C231.056 162.429 230.49 162.209 229.935 162.046C229.512 161.921 229.113 162.181 228.686 161.997C228.297 161.795 227.861 161.698 227.422 161.717C226.694 161.828 226.06 161.563 225.397 161.422C223.856 161.095 222.32 160.742 220.79 160.363C220.289 160.238 219.726 160.286 219.297 159.905C218.921 159.57 218.326 159.78 217.956 159.384C217.821 159.241 217.649 159.519 217.445 159.411C217.049 159.198 216.539 159.338 216.168 158.956C215.893 158.673 215.375 158.864 215.071 158.522L215.031 158.472C214.851 158.224 214.378 158.809 214.238 158.256C213.672 158.213 213.203 157.906 212.699 157.696C212.282 157.522 211.789 157.62 211.412 157.258C211.091 156.95 210.485 157.177 210.207 156.715C209.526 156.709 209.025 156.202 208.376 156.069C207.884 155.94 207.412 155.747 206.971 155.493C206.273 155.136 205.564 154.799 204.85 154.48C204.594 154.362 204.345 154.229 204.103 154.083C203.968 154.004 203.935 153.83 203.741 153.787C202.517 153.517 201.487 152.807 200.441 152.185C199.844 151.878 199.274 151.525 198.734 151.128L198.555 150.994C198.398 150.858 198.07 150.792 197.931 150.604C197.544 150.081 196.965 149.825 196.44 149.51L196.353 149.457C196.057 149.284 195.788 149.069 195.555 148.818C195.511 148.771 195.493 148.667 195.446 148.656C194.574 148.441 194.054 147.725 193.388 147.224C192.815 146.794 192.314 146.269 191.749 145.83L191.534 145.67C190.214 144.73 175.763 128.902 174.126 126.17L173.657 125.389C173.189 124.605 172.727 123.817 172.301 123.012L171.938 122.327C171.576 121.641 171.22 120.95 170.904 120.246L170.483 119.308C169.642 117.429 168.819 115.541 168.117 113.602C167.492 111.871 166.974 110.112 166.451 108.352C166.116 107.222 165.833 106.087 165.594 104.935C165.212 103.095 164.872 101.247 164.572 99.3917C164.293 97.6448 164.397 95.8724 164.024 94.1454C164.268 93.0848 163.819 92.0085 164.098 90.949C163.891 90.4261 164.073 89.8831 164.092 89.3676C164.112 88.8353 163.992 88.2777 164.206 87.7383C164.304 87.4932 164.078 87.1987 164.2 86.8995C164.335 86.6504 164.35 86.3547 164.242 86.0931C164.606 85.927 164.173 85.6712 164.324 85.4345C164.486 85.1777 164.558 84.8743 164.528 84.5724C164.422 83.8965 164.813 83.2725 164.744 82.662C164.673 82.0376 164.983 81.5083 164.982 80.9487L164.978 80.8434C164.924 80.1087 165.452 79.5556 165.469 78.8606C165.471 78.7996 165.615 78.7436 165.695 78.6831C165.669 78.5268 165.495 78.5622 165.372 78.4407C165.569 78.2707 165.741 78.0746 165.884 77.8578C165.992 77.5605 166.068 77.253 166.112 76.94L165.612 76.2978C165.797 75.9304 165.732 75.5962 165.979 75.3081C166.086 75.1823 166.026 74.7976 166.04 74.532C166.057 74.1831 166.507 73.9753 166.399 73.6998C166.315 73.3829 166.342 73.0471 166.476 72.7475C167.12 69.9199 167.776 67.095 168.445 64.2729C168.515 63.9703 168.454 63.5899 168.828 63.4127C168.419 62.9927 169.061 62.8461 169.071 62.5132C169.123 62.202 169.243 61.9061 169.424 61.6464C169.679 61.1606 169.702 60.5576 169.848 60.0101C169.886 59.623 170.033 59.2546 170.273 58.9469C170.522 58.6902 170.486 58.2433 170.673 57.883C170.938 57.4476 171.143 56.9791 171.284 56.4899C171.326 56.1383 171.467 55.8056 171.69 55.5297C171.888 55.3118 171.725 54.8606 172.111 54.6962C172.219 54.0638 172.598 53.5559 172.879 53.0018L172.93 52.8974C173.62 51.4715 174.396 50.0881 175.252 48.7546C175.964 47.6323 176.656 46.4981 177.379 45.3828C177.614 45.0229 177.864 44.6641 178.123 44.3224C179.021 43.0654 179.988 41.8587 181.02 40.7078C181.964 39.7121 182.863 38.6717 183.855 37.7144C184.381 37.205 184.813 36.5797 185.324 36.0387C186.529 34.7618 187.767 33.5194 189.069 32.3402C190.169 31.259 191.371 30.2862 192.66 29.4355C193.01 29.2235 193.298 28.9126 193.636 28.6779C194.046 28.4528 194.44 28.1991 194.815 27.9185C195.25 27.5109 195.784 27.2516 196.224 26.874C196.566 26.5809 197.112 26.748 197.356 26.2209C197.534 25.8374 198.201 25.9779 198.425 25.5298C199.041 25.5094 199.328 24.9163 199.887 24.7213L199.962 24.6982C200.55 24.5383 201.053 24.0652 201.593 23.7297C202.114 23.3625 202.659 23.0303 203.225 22.7354C204.287 22.2593 205.204 21.534 206.242 21.0422C207.232 20.574 208.123 19.8886 209.202 19.6276C209.457 19.5661 209.41 19.3422 209.585 19.2467C209.768 19.1468 209.968 19.213 210.133 19.0977C210.816 18.6544 215.376 3 260.686 3Z" fill="#FF8B5B"/>
<path fill-rule="evenodd" clip-rule="evenodd" d="M209.577 36.5539C208.061 37.4051 205.842 36.3193 205.593 34.6049C206.56 34.5536 207.593 34.4785 208.357 33.887C209.121 33.2955 209.389 31.9856 208.623 31.3964C202.386 30.634 196.32 28.5248 190.962 25.2565C194.62 24.1594 197.768 21.845 201.204 20.1822C204.64 18.5193 208.795 17.5359 212.222 19.2173C215.587 20.8683 219.46 18.7623 222.972 17.4477C229.077 15.1617 236.078 15.3533 242.048 17.9699C246.404 19.8789 253.785 16.7803 258.49 16.0697C266.176 14.9089 273.679 20.2711 281.397 19.3424C280.569 19.8874 279.741 20.4323 278.913 20.9772C279.728 20.9031 280.548 20.8731 281.367 20.8874C274.962 23.9383 268.557 26.9892 262.152 30.0401C263.775 30.6934 265.397 31.3467 267.02 32C266.638 33.2172 265.271 34.0393 264.011 33.8089C265.025 34.6119 266.038 35.415 267.052 36.218C265.97 36.983 264.601 37.3345 263.282 37.1856C264.686 38.0883 265.846 39.3653 266.606 40.8475C269.951 39.738 273.616 39.6013 277.036 40.4587C273.946 40.8619 270.857 41.2651 267.767 41.6683C268.234 42.9329 268.7 44.1975 269.167 45.462C273.203 44.5425 277.493 44.7515 281.42 46.0592C277.526 46.1578 273.632 46.2564 269.738 46.3551C269.647 51.4976 267.075 56.7419 262.559 59.2409C258.043 61.74 249.019 63.962 246.03 56.6857C243.741 58.1807 243.903 61.7743 245.535 63.962C247.166 66.1497 249.758 67.3605 252.103 68.7669C259.89 73.4385 265.764 81.175 268.153 89.9074C270.542 98.6398 269.42 108.273 265.088 116.23C270.929 117.133 276.356 120.442 279.819 125.21C287.278 121.756 291.408 113.874 297.121 107.983C303.619 101.281 312.59 97.0095 321.91 96.1787C327.424 95.6872 333.713 96.7456 336.929 101.231C341.11 107.061 337.256 116.126 330.582 118.806C325.292 120.931 319.326 119.862 313.636 120.263C302.193 121.07 292.148 127.787 282.713 134.281C282.328 136.383 283.101 138.66 284.687 140.1C288.062 136.627 292.319 134.011 296.95 132.564C298.662 132.029 301.228 132.168 301.418 133.944C301.49 134.616 301.135 135.254 300.776 135.827C297.688 140.754 293.335 144.888 288.245 147.725C285.558 149.223 282.556 150.383 279.482 150.212C276.407 150.041 273.277 148.274 272.232 145.391C271.749 144.055 271.696 142.508 270.78 141.419C269.229 139.577 266.251 140.129 264.078 141.175C261.905 142.221 259.588 143.644 257.256 143.023C251.427 141.471 245.36 140.806 239.33 141.057C231.652 141.377 223.828 143.156 216.389 141.237C213.904 140.595 211.123 139.584 208.921 140.899C204.582 143.489 207.509 151.783 203.058 154.178C201.481 155.026 199.549 154.713 197.809 154.283C190.123 152.384 182.913 148.602 176.994 143.365C176.423 142.86 175.835 142.293 175.675 141.55C175.196 139.322 178.5 138.395 180.752 138.808C184.577 139.508 188.235 141.095 191.354 143.407C192.447 144.218 194.111 143.272 194.574 141.996C195.038 140.72 194.719 139.314 194.538 137.969C193.396 129.474 198.75 120.542 206.804 117.508C201.928 110.425 200.074 101.35 201.783 92.9344C203.493 84.5185 208.743 76.8734 216 72.2325C218.899 70.3786 222.23 68.8622 224.077 65.967C225.925 63.0717 225.114 58.2144 221.734 57.5469C218.55 60.9801 213.37 62.4322 208.853 61.1579C204.337 59.8836 200.693 55.9419 199.792 51.356C196.794 52.3637 193.796 53.3715 190.798 54.3792C193.459 52.3381 196.61 50.9346 199.912 50.32C200.229 48.9532 200.546 47.5864 200.863 46.2195C195.143 45.8522 189.342 46.7893 184.032 48.9384C187.3 46.4902 191.457 45.2462 195.539 45.4951C199.691 45.7482 203.911 43.7261 206.302 40.338C204.806 39.8145 203.462 38.8693 202.466 37.641C203.992 36.8166 205.839 36.603 207.514 37.0574M238.92 126.197C238.648 126.461 238.355 126.774 238.374 127.152C238.393 127.53 238.963 127.812 239.159 127.488C240.231 125.72 242.095 124.449 244.138 124.093C246.181 123.737 248.368 124.302 249.98 125.602C250.542 126.056 251.044 126.598 251.686 126.93C251.917 127.049 252.313 127.052 252.323 126.793C252.326 126.708 252.277 126.631 252.229 126.56C251.072 124.863 249.342 123.559 247.386 122.913C245.671 122.345 243.685 122.31 242.152 123.261C241.595 123.606 241.12 124.065 240.65 124.521C240.073 125.08 239.497 125.638 238.92 126.197ZM230.606 123.108C228.387 122.816 225.997 123.557 224.519 125.231C224.258 125.526 224.021 125.858 223.932 126.241C223.842 126.623 223.926 127.066 224.224 127.324C225.368 125.556 227.399 124.39 229.51 124.29C231.62 124.191 233.753 125.162 235.058 126.815C235.262 127.074 235.457 127.356 235.747 127.514C236.037 127.672 236.458 127.652 236.635 127.374C236.845 127.042 236.591 126.617 236.331 126.322C234.856 124.645 232.826 123.4 230.606 123.108ZM246.264 120.847C246.229 121.221 246.725 121.453 247.081 121.331C247.438 121.208 247.674 120.882 247.912 120.591C249.897 118.176 253.675 117.448 256.421 118.952C256.782 118.649 256.802 118.069 256.561 117.665C256.32 117.262 255.88 117.014 255.431 116.871C254.458 116.562 253.402 116.667 252.401 116.869C250.032 117.346 247.638 118.464 246.393 120.526C246.333 120.626 246.274 120.731 246.264 120.847ZM236.949 128.684C235.975 128.752 235.022 129.008 234.111 129.355C232.851 129.835 231.61 130.535 230.873 131.659C231.954 131.964 232.991 131.161 233.979 130.627C236.195 129.43 239.07 129.554 241.174 130.937C241.834 131.371 242.682 131.931 243.326 131.474C241.82 129.595 239.358 128.518 236.949 128.684ZM240.949 128.079C241.688 127.696 242.278 127.074 243.011 126.679C244.02 126.136 245.276 126.073 246.335 126.513C246.91 126.752 247.418 127.126 247.985 127.384C248.551 127.642 249.226 127.776 249.79 127.514C249.853 127.484 249.917 127.446 249.944 127.382C249.987 127.279 249.91 127.168 249.836 127.084C248.574 125.649 246.596 124.872 244.689 125.061C242.783 125.251 240.998 126.402 240.045 128.057C240.244 128.317 240.658 128.23 240.949 128.079ZM226.157 128.147C226.553 127.923 226.863 127.577 227.224 127.302C227.948 126.752 228.89 126.499 229.795 126.603C230.802 126.72 231.711 127.25 232.544 127.826C232.788 127.995 233.037 128.172 233.326 128.239C233.615 128.306 233.959 128.233 234.122 127.987C234.284 127.743 234.219 127.403 234.046 127.167C233.873 126.931 233.613 126.776 233.36 126.628C232.33 126.027 231.241 125.425 230.049 125.364C228.558 125.287 227.173 126.061 225.884 126.81C225.361 127.113 224.76 127.573 224.871 128.166C225.229 128.446 225.762 128.371 226.157 128.147ZM232.872 122.396C233.141 122.743 233.668 122.371 233.965 122.048C234.88 121.053 236.199 120.436 237.553 120.372C238.907 120.307 240.28 120.795 241.286 121.698C241.54 121.926 241.808 122.195 242.15 122.204C242.492 122.214 242.799 121.739 242.528 121.532C241.077 120.422 239.388 119.515 237.562 119.395C235.736 119.275 233.768 120.09 232.922 121.706C232.809 121.923 232.722 122.203 232.872 122.396ZM249.018 122.091C249.259 121.99 249.436 121.783 249.621 121.598C251.026 120.191 253.406 119.877 255.131 120.87C255.563 121.119 256.212 121.393 256.463 120.964C256.672 120.606 256.299 120.19 255.944 119.976C253.623 118.575 250.315 119.108 248.558 121.167C248.379 121.377 248.207 121.664 248.33 121.91C248.446 122.144 248.777 122.192 249.018 122.091ZM250.301 122.223C250.201 122.306 250.102 122.399 250.06 122.522C249.943 122.864 250.36 123.184 250.722 123.155C251.084 123.126 251.392 122.895 251.72 122.741C252.521 122.365 253.483 122.455 254.295 122.804C254.617 122.942 254.928 123.12 255.274 123.172C255.621 123.224 256.025 123.11 256.182 122.799C254.805 121.1 251.984 120.824 250.301 122.223ZM228.528 121.57C228.734 121.666 229.014 121.648 229.146 121.464C229.326 121.214 229.133 120.874 228.942 120.633C228.296 119.815 227.601 119.009 226.713 118.461C225.824 117.912 224.705 117.648 223.716 117.984C223.615 118.348 224.07 118.595 224.428 118.719C225.806 119.198 227.057 120.035 228.022 121.124C228.172 121.294 228.323 121.474 228.528 121.57ZM240.707 122.482C239.081 121.45 236.861 121.431 235.218 122.437C234.932 122.612 234.639 122.858 234.616 123.19C234.594 123.523 235.048 123.833 235.274 123.585C236.181 122.589 237.84 122.383 238.966 123.125C239.519 123.49 240.314 123.44 240.816 123.009C241.054 122.985 240.908 122.61 240.707 122.482ZM252.537 128.069C250.226 127.914 248.076 129.267 246.399 130.857C246.521 131.138 246.937 131.064 247.219 130.942C249.13 130.119 251.04 129.296 252.95 128.473C253.093 128.284 252.775 128.085 252.537 128.069ZM230.544 129.095C230.828 129.255 231.106 129.473 231.433 129.473C231.76 129.474 232.083 129.082 231.876 128.831C231.224 128.039 230.198 127.565 229.169 127.581C228.141 127.597 227.13 128.101 226.502 128.912C226.58 129.207 226.942 129.343 227.245 129.299C227.548 129.255 227.815 129.085 228.096 128.964C228.873 128.629 229.807 128.679 230.544 129.095ZM242.002 128.877C241.976 129.103 242.234 129.276 242.463 129.264C242.691 129.251 242.892 129.118 243.093 129.008C243.934 128.547 244.971 128.452 245.883 128.754C246.468 128.947 247.197 129.263 247.619 128.816C247.656 128.561 247.399 128.368 247.17 128.247C246.351 127.813 245.449 127.486 244.521 127.495C243.593 127.503 242.635 127.891 242.106 128.649C242.057 128.718 242.012 128.793 242.002 128.877ZM240.278 118.94C241.233 119.281 242.123 119.803 242.885 120.469C243.2 120.744 243.5 121.049 243.882 121.22C244.263 121.391 244.757 121.396 245.056 121.104C244.396 120.6 243.853 119.944 243.484 119.202C243.284 118.803 242.753 118.729 242.306 118.708C241.651 118.676 240.997 118.644 240.343 118.612C240.274 118.705 240.249 118.829 240.278 118.94ZM231.745 121.228C232.083 120.914 232.332 120.518 232.644 120.179C233.128 119.652 233.765 119.268 234.458 119.084C234.757 119.005 235.15 118.852 235.104 118.548C234.258 118.401 233.292 118.283 232.625 118.822C231.69 119.576 230.949 120.566 230.49 121.673C230.941 121.772 231.407 121.542 231.745 121.228ZM224.222 120.844C224.828 121.237 225.435 121.631 226.041 122.024C226.298 122.191 226.626 122.361 226.892 122.21C227.14 122.07 227.178 121.71 227.049 121.457C226.92 121.205 226.674 121.036 226.438 120.878C225.944 120.547 225.451 120.216 224.957 119.885C224.543 119.608 223.869 119.387 223.644 119.83C223.45 120.211 223.862 120.61 224.222 120.844ZM236.993 125.573C237.225 125.803 237.55 126.05 237.845 125.91C237.98 125.846 238.066 125.714 238.146 125.589C238.409 125.175 238.672 124.761 238.935 124.348C238.246 123.586 236.895 123.565 236.183 124.306C236.129 124.363 236.076 124.428 236.066 124.506C236.05 124.63 236.146 124.737 236.235 124.825C236.488 125.075 236.74 125.324 236.993 125.573ZM226.379 131.489C226.872 131.661 227.454 131.712 227.889 131.424C227.234 130.674 226.467 130.022 225.62 129.496C225.38 129.347 225.109 129.202 224.828 129.242C224.548 129.282 224.3 129.599 224.436 129.847C224.852 130.606 225.559 131.203 226.379 131.489ZM253.442 125.465C253.676 125.185 253.909 124.905 254.142 124.624C254.222 124.528 254.307 124.419 254.302 124.293C254.296 124.134 254.149 124.02 254.01 123.942C253.526 123.671 252.954 123.557 252.402 123.624C252.191 123.649 251.971 123.706 251.823 123.858C251.674 124.009 251.631 124.278 251.781 124.429C252.119 124.77 252.458 125.111 252.796 125.452C252.907 125.564 253.047 125.685 253.2 125.652C253.302 125.63 253.376 125.545 253.442 125.465ZM229.117 119.406C229.326 119.63 229.589 119.859 229.895 119.834C230.551 119.78 230.763 118.652 231.419 118.714C231.595 118.425 231.115 118.194 230.775 118.188C229.897 118.175 229.018 118.161 228.14 118.147C228.426 118.595 228.754 119.017 229.117 119.406ZM234.543 131.696C236.371 131.688 238.198 131.68 240.026 131.672C239.865 131.312 239.437 131.166 239.05 131.086C237.782 130.825 236.452 130.865 235.202 131.202C234.922 131.277 234.602 131.413 234.543 131.696ZM245.827 129.783C245.222 129.81 244.617 129.837 244.013 129.864C243.817 129.873 243.567 129.929 243.543 130.122C243.532 130.209 243.576 130.291 243.618 130.368C243.778 130.657 243.948 130.957 244.224 131.139C244.501 131.321 244.917 131.339 245.132 131.088C245.297 130.896 245.31 130.595 245.506 130.435C245.633 130.332 245.808 130.311 245.949 130.227C246.089 130.142 246.178 129.924 246.048 129.824C245.987 129.778 245.903 129.779 245.827 129.783ZM230.169 130.789C230.331 130.538 230.178 130.183 229.926 130.021C229.674 129.86 229.36 129.84 229.061 129.826C228.73 129.809 228.296 129.87 228.236 130.194C228.208 130.348 228.287 130.5 228.363 130.637C228.587 131.04 228.917 131.501 229.377 131.456C229.734 131.421 229.976 131.089 230.169 130.789ZM254.056 127.181C254.328 127.203 254.571 127.02 254.761 126.826C255.342 126.235 255.711 125.443 255.789 124.62C255.597 124.497 255.362 124.687 255.215 124.86C254.72 125.442 254.226 126.024 253.731 126.606C253.556 126.813 253.785 127.159 254.056 127.181ZM223.809 123.058C224.085 123.401 224.617 123.509 225.006 123.3C225.205 123.193 225.372 122.98 225.333 122.759C225.298 122.561 225.117 122.428 224.951 122.315C224.71 122.151 224.47 121.988 224.23 121.825C224.156 121.775 224.072 121.723 223.985 121.741C223.925 121.753 223.876 121.797 223.836 121.843C223.546 122.174 223.534 122.714 223.809 123.058ZM245.163 119.433C245.452 119.674 245.88 119.425 246.167 119.181C246.478 118.916 246.788 118.652 247.099 118.387C246.923 118.22 246.642 118.258 246.404 118.307C245.712 118.449 245.019 118.592 244.327 118.734C244.606 118.967 244.885 119.2 245.163 119.433ZM256.034 116.051C256.209 116.267 256.576 116.221 256.776 116.028C256.975 115.835 257.049 115.55 257.106 115.279C257.12 115.213 257.133 115.143 257.106 115.082C257.036 114.928 256.805 114.974 256.651 115.046C256.236 115.238 255.748 115.696 256.034 116.051Z" fill="white"/>
<path fill-rule="evenodd" clip-rule="evenodd" d="M201.784 92.9353C203.493 84.5194 209.338 77.4744 216.595 72.8335C212.925 77.8403 201.665 86.0509 205.285 95.1983C211.07 109.82 233.575 112.12 232.792 112.279C219.481 114.98 200.511 99.2013 201.784 92.9353Z" fill="#E7EAEE"/>
<path fill-rule="evenodd" clip-rule="evenodd" d="M244.36 19.9027C243.434 20.0145 242.618 20.7527 242.418 21.6596C249.914 17.6478 258.968 16.6165 267.181 18.8388C267.188 22.9615 264.282 26.9268 260.336 28.1798L251.782 30.8963C254.039 31.1455 256.357 30.8161 258.454 29.9485C259.199 31.1168 260.426 31.9701 261.784 32.2643L259.155 32.8383C259.542 34.0142 260.334 35.054 261.366 35.7435C260.49 35.4448 259.515 35.4417 258.637 35.7349L259.226 37.8631C255.349 37.3277 251.206 37.8533 247.94 40.0015C244.674 42.1498 242.481 46.0989 243.07 49.951C243.759 45.7628 246.642 41.9947 250.515 40.2211C254.389 38.4475 259.139 38.7199 262.782 40.9245L260.311 42.7466C261.26 43.1224 262.385 43.0264 263.256 42.4953C265.158 43.3329 264.631 46.7972 262.565 47.0371L265.298 47.2262C265.772 51.8519 262.901 56.622 258.58 58.3888C254.26 60.1557 248.85 58.772 245.92 55.1509C242.283 56.9996 242.538 62.6027 245.13 65.7439C246.939 67.9366 249.431 69.3612 251.927 70.788L251.927 70.7881C253.006 71.4052 254.087 72.0228 255.113 72.7031C260.564 76.3174 264.627 81.9536 266.322 88.2513C263.362 90.2243 260.729 92.6822 258.561 95.4962C261.769 95.3473 264.91 94.0449 267.275 91.8833L267.78 96.7462C265.183 97.5422 262.85 99.167 261.209 101.322C263.523 101.557 265.909 101.019 267.896 99.8144C267.184 105.41 265.9 110.933 264.069 116.271L258.101 116.222C259.517 112.327 260.951 108.136 259.908 104.126C258.865 100.116 254.186 96.8058 250.503 98.7346C254.739 95.3364 257.946 90.6845 259.608 85.5283L248.942 99.2328L240.758 99.3018C240.5 95.4632 240.253 91.5288 241.349 87.8396C242.445 84.1504 245.183 80.6968 248.954 79.8556C249.363 79.7643 249.799 79.69 250.24 79.6148C252.083 79.3004 254.027 78.969 254.568 77.3108C248.455 76.9568 242.326 80.8526 240.077 86.5228C238.475 90.5631 238.757 95.0667 239.064 99.3998C233.412 98.5884 227.625 98.7189 222.016 99.7841C221.042 96.48 220.032 93.1018 217.99 90.3229C215.947 87.5439 212.631 85.4363 209.189 85.7794C214.732 86.5994 217.478 92.7308 219.568 97.9067C221.659 103.083 225.453 108.994 231.033 108.482C232.623 108.337 233.129 110.935 231.911 111.962C230.693 112.988 228.883 112.793 227.324 112.453C219.292 110.704 211.794 106.599 206.009 100.784C204.882 99.6521 203.793 98.4133 203.272 96.9064C202.63 95.0472 202.929 92.9941 203.482 91.1065C206.303 81.4634 214.984 74.8563 223.235 69.075C227.674 65.9647 227.515 58.257 222.951 55.3309C219.573 58.3866 215.069 60.5232 210.532 60.0247C205.995 59.5262 201.701 55.8285 201.554 51.2872C202.979 51.1622 204.376 50.7267 205.618 50.0202C204.399 49.589 203.025 49.6075 201.818 50.0712C201.49 48.8473 201.73 47.4845 202.456 46.4443L205.043 46.1692C204.523 45.5839 203.797 45.183 203.023 45.0531C204.89 41.9565 209.223 41.109 212.696 42.1554C216.168 43.2017 218.98 45.6947 221.67 48.1174C218.865 41.9948 211.258 40.0212 204.616 38.7665L207.514 37.0574C205.839 36.603 203.992 36.8166 202.466 37.641C203.462 38.8693 204.806 39.8145 206.302 40.338C203.911 43.7261 199.691 45.7482 195.539 45.4951C191.457 45.2462 187.3 46.4902 184.032 48.9384C189.342 46.7893 195.143 45.8522 200.863 46.2195L199.912 50.32C196.61 50.9346 193.459 52.3381 190.798 54.3792L199.792 51.356C200.693 55.9419 204.337 59.8836 208.853 61.1579C213.37 62.4322 218.55 60.9801 221.734 57.5469C225.114 58.2144 225.925 63.0717 224.077 65.967C222.614 68.2595 220.222 69.6874 217.849 71.103C217.226 71.4752 216.603 71.8465 216 72.2325C208.743 76.8734 203.493 84.5185 201.783 92.9344C200.074 101.35 201.928 110.425 206.804 117.508C198.75 120.542 193.396 129.474 194.538 137.969C194.564 138.164 194.593 138.359 194.622 138.556L194.622 138.556L194.622 138.556L194.622 138.556C194.795 139.718 194.971 140.904 194.574 141.996C194.111 143.272 192.447 144.218 191.354 143.407C188.235 141.095 184.577 139.508 180.752 138.808C178.5 138.395 175.196 139.322 175.675 141.55C175.835 142.293 176.423 142.86 176.994 143.365C182.913 148.602 190.123 152.384 197.809 154.283C199.549 154.713 201.481 155.026 203.058 154.178C205.302 152.97 205.671 150.262 206.041 147.542C206.405 144.869 206.77 142.183 208.921 140.899C210.863 139.739 213.256 140.389 215.499 140.999C215.799 141.08 216.096 141.161 216.389 141.237C221.723 142.613 227.254 142.088 232.788 141.562L232.788 141.562C234.972 141.355 237.157 141.147 239.33 141.057C245.36 140.806 251.427 141.471 257.256 143.023C259.287 143.564 261.305 142.555 263.228 141.595L263.228 141.594L263.233 141.592C263.517 141.45 263.799 141.31 264.078 141.175C266.251 140.129 269.229 139.577 270.78 141.419C271.393 142.148 271.619 143.081 271.847 144.019C271.959 144.483 272.072 144.948 272.232 145.391C273.277 148.274 276.407 150.041 279.482 150.212C282.556 150.383 285.558 149.223 288.245 147.725C293.335 144.888 297.688 140.754 300.776 135.827C301.135 135.254 301.49 134.616 301.418 133.944C301.228 132.168 298.662 132.029 296.95 132.564C292.319 134.011 288.062 136.627 284.687 140.1C283.101 138.66 282.328 136.383 282.713 134.281C292.148 127.787 302.193 121.07 313.636 120.263C315.43 120.137 317.251 120.156 319.07 120.176C323.021 120.218 326.96 120.261 330.582 118.806C337.256 116.126 341.11 107.061 336.929 101.231C333.713 96.7456 327.424 95.6872 321.91 96.1787C312.59 97.0095 303.619 101.281 297.121 107.983C295.315 109.845 293.668 111.906 292.023 113.963C288.465 118.414 284.92 122.848 279.819 125.21C276.356 120.442 270.929 117.133 265.088 116.23C269.42 108.273 270.542 98.6398 268.153 89.9074C265.764 81.175 259.89 73.4385 252.103 68.7669C251.678 68.5124 251.246 68.2642 250.812 68.0155C248.851 66.8902 246.871 65.7537 245.535 63.962C243.903 61.7743 243.741 58.1807 246.03 56.6857C249.073 60.8423 255.459 61.74 259.975 59.2409C264.491 56.7419 267.063 51.4976 267.154 46.3551L278.836 46.0592C274.909 44.7515 270.619 44.5425 266.583 45.462L265.183 41.6683L274.452 40.4587C271.032 39.6013 267.367 39.738 264.022 40.8475C263.261 39.3653 262.102 38.0883 260.698 37.1856C262.016 37.3345 263.386 36.983 264.468 36.218L261.427 33.8089C262.687 34.0393 264.054 33.2172 264.436 32L259.568 30.0401L278.783 20.8874C277.964 20.8731 277.144 20.9031 276.329 20.9772L278.813 19.3424C275.02 19.7987 271.28 18.7362 267.544 17.6749C263.677 16.5764 259.815 15.4793 255.906 16.0697C254.37 16.3016 252.825 16.788 251.288 17.2716C248.116 18.2696 244.982 19.2558 242.048 17.9699C236.078 15.3533 229.077 15.1617 222.972 17.4477C222.432 17.6498 221.883 17.8707 221.329 18.0937L221.329 18.0937C218.281 19.3212 215.07 20.6145 212.222 19.2173C208.795 17.5359 204.64 18.5193 201.204 20.1822C199.998 20.7659 198.827 21.4299 197.658 22.0934C195.495 23.3199 193.336 24.5445 190.962 25.2565C196.32 28.5248 202.386 30.634 208.623 31.3964C209.389 31.9856 209.121 33.2955 208.357 33.887C207.593 34.4785 206.56 34.5536 205.593 34.6049C205.842 36.3193 208.061 37.4051 209.577 36.5539C208.94 36.6718 208.892 35.6418 209.157 35.0532L210.808 31.3801C212.09 31.8488 213.686 31.0968 214.135 29.8124C210.959 30.1928 207.664 30.563 204.622 29.5795C201.58 28.5961 198.862 25.8527 199.005 22.672C205.779 18.7649 214.874 19.2939 221.145 23.9599C220.661 22.5532 219.471 21.4071 218.042 20.9722C219.691 19.3558 221.881 18.2951 224.176 18.0002C222.813 19.0742 222.188 20.9943 222.66 22.6603L228.782 17.0546C227.778 18.847 227.215 20.8826 227.157 22.9342C229.428 21.457 231.237 19.287 232.277 16.793L235.001 17.1737C233.334 18.5762 232.405 20.8046 232.585 22.9702C234.66 21.6859 236.269 19.6714 237.059 17.3693C239.616 17.7806 242.1 18.6423 244.36 19.9027ZM319.599 119.138H319.598H319.598H319.598H319.598H319.598H319.598H319.597H319.597H319.597H319.597H319.597H319.596H319.596H319.596H319.596H319.596H319.596H319.595H319.595H319.595H319.595H319.595H319.594H319.594H319.594H319.594H319.594H319.593H319.593H319.593H319.593H319.593H319.593H319.592C318.225 119.093 316.857 119.048 315.496 119.086C305.356 119.373 295.929 124.289 287.563 129.999C287.446 130.079 287.33 130.159 287.213 130.238L287.211 130.24L287.211 130.24C285.623 131.327 284.02 132.425 282.207 133.066L280.078 126.889C279.964 126.557 279.894 126.102 280.203 125.935C283.459 124.183 286.432 121.911 288.974 119.233C290.667 117.449 292.169 115.488 293.67 113.529L293.67 113.529L293.67 113.529L293.67 113.529L293.67 113.529L293.67 113.529L293.67 113.529L293.67 113.529L293.67 113.529L293.67 113.529L293.67 113.529L293.67 113.529L293.67 113.529L293.671 113.529L293.671 113.529L293.671 113.529L293.671 113.529L293.671 113.529L293.671 113.529L293.671 113.529L293.671 113.529L293.671 113.529L293.671 113.528L293.671 113.528L293.671 113.528L293.671 113.528L293.671 113.528L293.671 113.528L293.671 113.528L293.671 113.528L293.671 113.528L293.671 113.528L293.671 113.528L293.671 113.528L293.671 113.528C295.796 110.755 297.917 107.987 300.573 105.731C304.815 102.127 310.155 100.065 315.513 98.5262C319.479 97.3878 323.634 96.4947 327.713 97.12C331.792 97.7453 335.808 100.169 337.304 103.997C338.492 107.038 337.911 110.626 336.08 113.333C334.25 116.039 331.278 117.882 328.093 118.654C325.324 119.326 322.464 119.232 319.599 119.138ZM202.926 132.222C203.14 132.73 203.275 133.407 202.847 133.756C202.296 134.205 201.514 133.626 201.051 133.088L197.102 128.495C196.157 130.941 195.723 133.581 195.837 136.199C195.86 136.725 195.903 137.258 195.946 137.794L195.946 137.794C196.111 139.839 196.278 141.911 195.327 143.685C194.909 144.462 194.199 145.177 193.315 145.234C192.814 145.266 192.326 145.084 191.863 144.889C190.596 144.355 189.347 143.7 188.098 143.044L188.098 143.044L188.098 143.044L188.098 143.044C184.883 141.356 181.671 139.67 178.152 140.072C177.671 140.127 177.072 140.363 177.091 140.844C177.1 141.06 177.241 141.245 177.378 141.412C182.453 147.581 190.389 150.573 198.071 152.831C199.327 153.201 200.651 153.561 201.931 153.28C203.21 153 204.398 151.851 204.243 150.556C203.834 147.13 204.913 143.554 207.149 140.918C208.042 139.866 209.171 138.929 210.526 138.649C212.19 138.305 213.816 138.987 215.418 139.659C215.83 139.832 216.239 140.004 216.648 140.158C219.779 141.336 223.298 141.465 226.508 140.518C225.253 140.502 224.65 139.004 224.39 137.782C222.705 129.866 221.81 121.783 221.721 113.691C221.711 112.811 221.091 112.033 220.343 111.564C219.71 111.167 218.988 110.946 218.27 110.727L218.268 110.726C218.139 110.686 218.009 110.647 217.881 110.606C215.267 109.782 212.804 108.486 210.647 106.801C210.375 106.588 210.108 106.369 209.84 106.15C209.015 105.475 208.189 104.799 207.241 104.315C205.986 103.674 204.433 103.413 203.175 104.049C202.895 104.714 203.402 105.487 204.051 105.809C204.543 106.052 205.094 106.118 205.643 106.184H205.643C205.819 106.205 205.995 106.226 206.169 106.253C206.996 106.381 207.8 106.649 208.538 107.042C209.312 107.455 210.046 108.545 209.356 109.086C209.073 109.308 208.676 109.293 208.316 109.266L204.262 108.97C205.25 111.647 206.51 114.224 208.017 116.649C208.152 116.867 208.333 117.109 208.59 117.112C212.562 117.147 216.997 117.701 219.514 120.759C219.992 121.339 220.383 122.177 219.974 122.806C217.667 120.033 214.057 118.381 210.44 118.443C206.824 118.506 203.274 120.28 201.064 123.131C203.015 124.431 204.565 126.317 205.459 128.477C205.729 129.129 205.679 130.196 204.97 130.181L200.714 124.994C200.524 124.763 200.296 124.511 199.995 124.502C199.754 124.494 199.542 124.648 199.351 124.794C198.937 125.111 198.507 125.447 198.291 125.92C198.075 126.393 198.155 127.044 198.605 127.307C200.524 128.429 202.064 130.18 202.926 132.222ZM251.447 140.339C254.181 138.07 255.072 134.333 255.806 130.866L258.495 118.163C258.524 118.027 258.557 117.884 258.655 117.785C258.785 117.655 258.988 117.641 259.172 117.635C264.074 117.488 269.293 117.953 273.242 120.849C271.631 121.644 270.222 122.842 269.183 124.303C268.891 124.713 268.647 125.329 269.023 125.665C269.164 125.79 269.36 125.835 269.549 125.848C270.49 125.915 271.35 125.33 272.037 124.687C272.186 124.548 272.331 124.405 272.477 124.261C273.008 123.739 273.54 123.214 274.213 122.907C275.071 122.516 276.263 122.626 276.737 123.439C275.206 124.214 273.946 125.505 273.209 127.05C273.018 127.452 272.859 127.916 273.014 128.334C273.17 128.751 273.781 128.996 274.081 128.666L277.037 125.417C277.18 125.26 277.379 125.088 277.579 125.16C277.687 125.2 277.757 125.301 277.819 125.398C279.386 127.845 280.009 130.695 280.634 133.557L280.634 133.557C281.001 135.232 281.368 136.912 281.926 138.518C282.373 139.805 283.236 141.25 284.604 141.251C285.36 141.252 286.029 140.789 286.627 140.329C287.267 139.838 287.903 139.322 288.543 138.804C291.549 136.369 294.624 133.878 298.411 133.579C299.008 133.532 299.773 133.663 299.913 134.243C299.995 134.579 299.813 134.918 299.632 135.214C296.817 139.799 292.595 143.415 287.931 146.122C285.544 147.507 282.925 148.697 280.161 148.719C277.397 148.74 274.471 147.333 273.426 144.786C273.213 144.266 273.083 143.718 272.953 143.17L272.953 143.17C272.802 142.536 272.652 141.903 272.374 141.316C271.657 139.802 270.069 138.737 268.391 138.645C266.793 138.557 265.324 139.265 263.858 139.972C263.342 140.22 262.828 140.469 262.308 140.682C258.858 142.098 254.801 141.971 251.447 140.339ZM233.203 112.992C232.175 113.865 230.791 114.214 229.442 114.313C227.012 114.49 224.532 113.924 222.423 112.71L223.293 115.989C223.33 116.131 223.375 116.283 223.493 116.37C223.595 116.446 223.731 116.455 223.858 116.462L236.364 117.116C238.188 117.211 240.013 117.307 241.838 117.254C246.957 117.107 252.038 115.777 256.567 113.398C256.828 113.261 257.094 113.115 257.283 112.888C257.507 112.618 257.596 112.264 257.671 111.921C258.305 109.025 258.415 106.015 257.993 103.081C257.889 102.36 257.745 101.621 257.338 101.016C256.931 100.411 256.199 99.9688 255.48 100.105C248.12 101.5 240.607 101.069 233.095 100.638L233.094 100.638C230.263 100.476 227.432 100.313 224.609 100.249C224.105 100.237 223.575 100.235 223.132 100.475C222.689 100.715 222.385 101.285 222.612 101.733C223.899 104.268 226.559 105.885 229.317 106.615C229.515 106.668 229.718 106.719 229.923 106.771C231.707 107.223 233.671 107.72 234.319 109.373C234.811 110.627 234.232 112.118 233.203 112.992ZM253.268 134.477C252.763 136.471 251.703 138.54 249.778 139.287C249.105 139.549 248.376 139.627 247.657 139.694C240.986 140.312 234.243 140.163 227.606 139.251C227.211 139.197 226.794 139.13 226.486 138.878C226.111 138.571 225.984 138.062 225.885 137.588C225.584 136.137 225.351 134.671 225.186 133.198C225.157 132.937 225.229 132.564 225.492 132.585C229.739 132.914 233.999 133.086 238.259 133.102C241.197 133.114 244.159 133.048 247.029 132.419C249.899 131.791 252.697 130.563 254.795 128.515C254.199 129.762 253.942 131.124 253.685 132.488L253.685 132.488C253.559 133.155 253.433 133.823 253.268 134.477ZM238.92 126.197C238.648 126.461 238.355 126.774 238.374 127.152C238.393 127.53 238.963 127.812 239.159 127.488C240.231 125.72 242.095 124.449 244.138 124.093C246.181 123.737 248.368 124.302 249.98 125.602C250.147 125.738 250.309 125.88 250.471 126.023C250.853 126.36 251.235 126.697 251.686 126.93C251.917 127.049 252.313 127.052 252.323 126.793C252.326 126.708 252.277 126.631 252.229 126.56C251.072 124.863 249.342 123.559 247.386 122.913C245.671 122.345 243.685 122.31 242.152 123.261C241.595 123.606 241.12 124.065 240.65 124.521L238.92 126.197ZM224.519 125.231C225.997 123.557 228.387 122.816 230.606 123.108C232.826 123.4 234.856 124.645 236.331 126.322C236.591 126.617 236.845 127.042 236.635 127.374C236.458 127.652 236.037 127.672 235.747 127.514C235.494 127.376 235.314 127.144 235.136 126.915C235.11 126.881 235.084 126.848 235.058 126.815C233.753 125.162 231.62 124.191 229.51 124.29C227.399 124.39 225.368 125.556 224.224 127.324C223.926 127.066 223.842 126.623 223.932 126.241C224.021 125.858 224.258 125.526 224.519 125.231ZM246.264 120.847C246.229 121.221 246.725 121.453 247.081 121.331C247.402 121.221 247.625 120.945 247.841 120.679L247.841 120.679C247.865 120.65 247.889 120.62 247.912 120.591C249.897 118.176 253.675 117.448 256.421 118.952C256.782 118.649 256.802 118.069 256.561 117.665C256.32 117.262 255.88 117.014 255.431 116.871C254.458 116.562 253.402 116.667 252.401 116.869C250.032 117.346 247.638 118.464 246.393 120.526C246.333 120.626 246.274 120.731 246.264 120.847ZM234.111 129.355C235.022 129.008 235.975 128.752 236.949 128.684C239.358 128.518 241.82 129.595 243.326 131.474C242.684 131.93 241.839 131.375 241.18 130.941L241.174 130.937C239.07 129.554 236.195 129.43 233.979 130.627C233.806 130.721 233.632 130.822 233.456 130.925L233.456 130.925C232.627 131.408 231.765 131.91 230.873 131.659C231.61 130.535 232.851 129.835 234.111 129.355ZM240.949 128.079C241.327 127.883 241.666 127.624 242.005 127.366C242.329 127.119 242.653 126.872 243.011 126.679C244.02 126.136 245.276 126.073 246.335 126.513C246.644 126.642 246.934 126.809 247.223 126.976C247.473 127.121 247.723 127.265 247.985 127.384C248.551 127.642 249.226 127.776 249.79 127.514C249.853 127.484 249.917 127.446 249.944 127.382C249.987 127.279 249.91 127.168 249.836 127.084C248.574 125.649 246.596 124.872 244.689 125.061C242.783 125.251 240.998 126.402 240.045 128.057C240.244 128.317 240.658 128.23 240.949 128.079ZM226.836 127.628L226.836 127.628L226.835 127.628C226.621 127.817 226.406 128.006 226.157 128.147C225.762 128.371 225.229 128.446 224.871 128.166C224.76 127.573 225.361 127.113 225.884 126.81C227.173 126.061 228.558 125.287 230.049 125.364C231.241 125.425 232.33 126.027 233.36 126.628C233.613 126.776 233.873 126.931 234.046 127.167C234.219 127.403 234.284 127.743 234.122 127.987C233.959 128.233 233.615 128.306 233.326 128.239C233.047 128.174 232.807 128.008 232.571 127.845L232.544 127.826C231.711 127.25 230.802 126.72 229.795 126.603C228.89 126.499 227.948 126.752 227.224 127.302C227.09 127.404 226.963 127.516 226.836 127.628L226.836 127.628ZM232.872 122.396C233.141 122.743 233.668 122.371 233.965 122.048C234.88 121.053 236.199 120.436 237.553 120.372C238.907 120.307 240.28 120.795 241.286 121.698L241.348 121.754L241.348 121.754C241.584 121.968 241.836 122.196 242.15 122.204C242.492 122.214 242.799 121.739 242.528 121.532C241.077 120.422 239.388 119.515 237.562 119.395C235.736 119.275 233.768 120.09 232.922 121.706C232.809 121.923 232.722 122.203 232.872 122.396ZM249.539 121.681C249.382 121.842 249.224 122.005 249.018 122.091C248.777 122.192 248.446 122.144 248.33 121.91C248.207 121.664 248.379 121.377 248.558 121.167C250.315 119.108 253.623 118.575 255.944 119.976C256.299 120.19 256.672 120.606 256.463 120.964C256.212 121.393 255.563 121.119 255.131 120.87C253.406 119.877 251.026 120.191 249.621 121.598C249.593 121.626 249.566 121.654 249.539 121.681ZM250.301 122.223C250.201 122.306 250.102 122.399 250.06 122.522C249.943 122.864 250.36 123.184 250.722 123.155C250.984 123.134 251.218 123.007 251.451 122.88C251.54 122.832 251.629 122.783 251.72 122.741C252.521 122.365 253.483 122.455 254.295 122.804C254.372 122.837 254.449 122.872 254.525 122.908L254.525 122.908C254.768 123.02 255.011 123.133 255.274 123.172C255.621 123.224 256.025 123.11 256.182 122.799C254.805 121.1 251.984 120.824 250.301 122.223ZM229.146 121.464C229.014 121.648 228.734 121.666 228.528 121.57C228.337 121.481 228.194 121.319 228.054 121.16L228.022 121.124C227.057 120.035 225.806 119.198 224.428 118.719C224.07 118.595 223.615 118.348 223.716 117.984C224.705 117.648 225.824 117.912 226.713 118.461C227.601 119.009 228.296 119.815 228.942 120.633C229.133 120.874 229.326 121.214 229.146 121.464ZM240.707 122.482C239.081 121.45 236.861 121.431 235.218 122.437C234.932 122.612 234.639 122.858 234.616 123.19C234.594 123.523 235.048 123.833 235.274 123.585C236.181 122.589 237.84 122.383 238.966 123.125C239.519 123.49 240.314 123.44 240.816 123.009C241.054 122.985 240.908 122.61 240.707 122.482ZM246.399 130.857C248.076 129.267 250.226 127.914 252.537 128.069C252.775 128.085 253.093 128.284 252.95 128.473L247.219 130.942C246.937 131.064 246.521 131.138 246.399 130.857ZM230.712 129.194L230.713 129.195C230.94 129.333 231.171 129.473 231.433 129.473C231.76 129.474 232.083 129.082 231.876 128.831C231.224 128.039 230.198 127.565 229.169 127.581C228.141 127.597 227.13 128.101 226.502 128.912C226.58 129.207 226.942 129.343 227.245 129.299C227.463 129.267 227.663 129.17 227.863 129.073C227.94 129.035 228.017 128.998 228.096 128.964C228.873 128.629 229.807 128.679 230.544 129.095C230.6 129.126 230.656 129.16 230.712 129.194ZM242.463 129.264C242.234 129.276 241.976 129.103 242.002 128.877C242.012 128.793 242.057 128.718 242.106 128.649C242.635 127.891 243.593 127.503 244.521 127.495C245.449 127.486 246.351 127.813 247.17 128.247C247.399 128.368 247.656 128.561 247.619 128.816C247.239 129.218 246.61 129.002 246.062 128.814L245.957 128.778C245.932 128.77 245.908 128.762 245.883 128.754C244.971 128.452 243.934 128.547 243.093 129.008C243.064 129.024 243.035 129.041 243.006 129.057C242.834 129.154 242.658 129.253 242.463 129.264ZM240.278 118.94C241.233 119.281 242.123 119.803 242.885 120.469C242.938 120.516 242.991 120.563 243.044 120.61C243.304 120.843 243.565 121.077 243.882 121.22C244.263 121.391 244.757 121.396 245.056 121.104C244.396 120.6 243.853 119.944 243.484 119.202C243.284 118.803 242.753 118.729 242.306 118.708L240.343 118.612C240.274 118.705 240.249 118.829 240.278 118.94ZM232.28 120.618L232.28 120.618L232.28 120.618L232.28 120.618L232.279 120.618L232.279 120.618L232.279 120.618L232.279 120.618L232.279 120.618L232.279 120.618L232.279 120.618L232.279 120.618L232.279 120.618L232.279 120.618L232.279 120.618C232.111 120.831 231.943 121.044 231.745 121.228C231.407 121.542 230.941 121.772 230.49 121.673C230.949 120.566 231.69 119.576 232.625 118.822C233.292 118.283 234.258 118.401 235.104 118.548C235.15 118.852 234.757 119.005 234.458 119.084C233.765 119.268 233.128 119.652 232.644 120.179C232.516 120.319 232.398 120.468 232.28 120.618ZM224.222 120.844L226.041 122.024C226.298 122.191 226.626 122.361 226.892 122.21C227.14 122.07 227.178 121.71 227.049 121.457C226.92 121.205 226.674 121.036 226.438 120.878L224.957 119.885C224.543 119.608 223.869 119.387 223.644 119.83C223.45 120.211 223.862 120.61 224.222 120.844ZM237.845 125.91C237.55 126.05 237.225 125.803 236.993 125.573L236.235 124.825C236.146 124.737 236.05 124.63 236.066 124.506C236.076 124.428 236.129 124.363 236.183 124.306C236.895 123.565 238.246 123.586 238.935 124.348L238.146 125.589C238.066 125.714 237.98 125.846 237.845 125.91ZM226.379 131.489C226.872 131.661 227.454 131.712 227.889 131.424C227.234 130.674 226.467 130.022 225.62 129.496C225.38 129.347 225.109 129.202 224.828 129.242C224.548 129.282 224.3 129.599 224.436 129.847C224.852 130.606 225.559 131.203 226.379 131.489ZM254.142 124.624L253.442 125.465C253.376 125.545 253.302 125.63 253.2 125.652C253.047 125.685 252.907 125.564 252.796 125.452L251.781 124.429C251.631 124.278 251.674 124.009 251.823 123.858C251.971 123.706 252.191 123.649 252.402 123.624C252.954 123.557 253.526 123.671 254.01 123.942C254.149 124.02 254.296 124.134 254.302 124.293C254.307 124.419 254.222 124.528 254.142 124.624ZM229.117 119.406C229.326 119.63 229.589 119.859 229.895 119.834C230.212 119.808 230.426 119.531 230.635 119.259C230.86 118.968 231.08 118.682 231.419 118.714C231.595 118.425 231.115 118.194 230.775 118.188L228.14 118.147C228.426 118.595 228.754 119.017 229.117 119.406ZM240.026 131.672L234.543 131.696C234.602 131.413 234.922 131.277 235.202 131.202C236.452 130.865 237.782 130.825 239.05 131.086C239.437 131.166 239.865 131.312 240.026 131.672ZM245.827 129.783L244.013 129.864C243.817 129.873 243.567 129.929 243.543 130.122C243.532 130.209 243.576 130.291 243.618 130.368C243.778 130.657 243.948 130.957 244.224 131.139C244.501 131.321 244.917 131.339 245.132 131.088C245.206 131.002 245.249 130.894 245.292 130.786C245.345 130.654 245.398 130.523 245.506 130.435C245.578 130.376 245.665 130.345 245.753 130.312C245.821 130.288 245.888 130.263 245.949 130.227C246.089 130.142 246.178 129.924 246.048 129.824C245.987 129.778 245.903 129.779 245.827 129.783ZM229.926 130.021C230.178 130.183 230.331 130.538 230.169 130.789C229.976 131.089 229.734 131.421 229.377 131.456C228.917 131.501 228.587 131.04 228.363 130.637C228.287 130.5 228.208 130.348 228.236 130.194C228.296 129.87 228.73 129.809 229.061 129.826C229.36 129.84 229.674 129.86 229.926 130.021ZM254.056 127.181C254.328 127.203 254.571 127.02 254.761 126.826C255.342 126.235 255.711 125.443 255.789 124.62C255.597 124.497 255.362 124.687 255.215 124.86L253.731 126.606C253.556 126.813 253.785 127.159 254.056 127.181ZM225.006 123.3C224.617 123.509 224.085 123.401 223.809 123.058C223.534 122.714 223.546 122.174 223.836 121.843C223.876 121.797 223.925 121.753 223.985 121.741C224.072 121.723 224.156 121.775 224.23 121.825L224.951 122.315C225.117 122.428 225.298 122.561 225.333 122.759C225.372 122.98 225.205 123.193 225.006 123.3ZM245.163 119.433C245.452 119.674 245.88 119.425 246.167 119.181L247.099 118.387C246.923 118.22 246.642 118.258 246.404 118.307L244.327 118.734L245.163 119.433ZM203.178 101.249C202.965 101.061 202.911 100.754 202.905 100.472C202.898 100.153 202.935 99.8333 203.016 99.5248L204.392 101.309C204.475 101.415 204.542 101.598 204.421 101.657C204.249 101.542 204.037 101.509 203.827 101.477C203.589 101.44 203.353 101.404 203.178 101.249ZM256.034 116.051C256.209 116.267 256.576 116.221 256.776 116.028C256.975 115.835 257.049 115.55 257.106 115.279C257.12 115.213 257.133 115.143 257.106 115.082C257.036 114.928 256.805 114.974 256.651 115.046C256.236 115.238 255.748 115.696 256.034 116.051ZM240.457 37.1819C240.625 36.7631 241.017 36.4802 241.404 36.2441C242.569 35.5315 243.863 35.0283 245.205 34.7659C245.527 34.7031 245.909 34.6725 246.132 34.911C246.383 35.1794 246.258 35.6435 245.979 35.8833C245.731 36.097 245.405 36.1847 245.085 36.2705C245.046 36.281 245.007 36.2914 244.969 36.3021C243.895 36.598 242.885 37.1204 242.025 37.8248C241.695 38.0956 241.303 38.4145 240.89 38.3004C240.454 38.1796 240.288 37.6007 240.457 37.1819ZM216.315 37.2807C216.004 37.1128 215.793 36.6937 215.987 36.3985C216.1 36.2268 216.31 36.1486 216.51 36.0981C218.128 35.6892 219.804 36.411 221.267 37.2104C221.597 37.3904 221.936 37.5863 222.144 37.8981C222.351 38.2099 222.382 38.6719 222.111 38.9311C221.657 39.3649 220.938 38.9187 220.426 38.555C219.529 37.9183 218.452 37.5366 217.352 37.4664C217.303 37.4633 217.254 37.4606 217.204 37.458C216.897 37.4418 216.584 37.4253 216.315 37.2807ZM233.279 60.374L232.215 57.3521C231.267 58.0327 230.559 59.0366 230.237 60.1547C229.947 59.9193 229.936 59.5212 229.925 59.1303C229.922 59.0135 229.919 58.8973 229.909 58.7862C229.846 58.1275 229.43 57.5124 228.841 57.2061C228.251 56.8998 227.507 56.9118 226.928 57.2369C227.081 57.5715 227.443 57.6777 227.816 57.787C228.063 57.8596 228.315 57.9335 228.514 58.0767C228.934 58.379 229.054 58.9486 229.061 59.4645C229.062 59.5938 229.059 59.7241 229.056 59.8545V59.8547C229.046 60.2443 229.036 60.6346 229.158 61.0015C229.198 61.12 229.254 61.2381 229.35 61.3179C229.623 61.544 230.036 61.3562 230.313 61.1343C230.938 60.633 231.429 59.9684 231.724 59.2256C231.984 59.4841 232.08 59.8473 232.175 60.2076L232.175 60.2076C232.203 60.3134 232.231 60.419 232.263 60.5216C232.404 60.9736 232.741 61.4567 233.216 61.4348C233.532 61.4202 233.787 61.183 234.012 60.9601L235.299 59.6796C235.454 59.5253 235.623 59.3291 235.573 59.1164C235.525 58.9123 235.282 58.803 235.073 58.8323C234.865 58.8616 234.687 58.9924 234.523 59.1249C234.066 59.4963 233.648 59.9157 233.279 60.374ZM230.337 48.2526C230.406 47.6987 230.443 47.0535 230.035 46.6715C229.272 45.9589 228.604 45.146 228.053 44.2605C227.813 43.8743 227.588 43.4231 227.702 42.9835C227.875 42.3195 228.686 42.0794 229.37 41.9965C230.464 41.8639 231.572 41.8413 232.671 41.9294C233.143 41.9672 233.644 42.0378 234.005 42.3427C234.366 42.6476 234.497 43.2658 234.148 43.585C232.438 45.1494 231.437 47.4539 231.463 49.7654C232.097 50.175 232.741 50.5896 233.464 50.8112C234.186 51.0327 235.009 51.04 235.661 50.6586C235.935 50.498 236.165 50.2783 236.396 50.0581C236.555 49.9061 236.714 49.7538 236.889 49.6207C237.316 49.2948 237.927 49.0929 238.384 49.3748L236.644 50.9699C235.95 51.6056 235.089 52.2893 234.171 52.0753C233.867 52.0044 233.6 51.8407 233.332 51.6764C233.172 51.5787 233.013 51.4807 232.845 51.4019C231.946 50.9809 230.891 51.1382 229.919 51.3458L229.742 51.384C228.825 51.5817 227.876 51.7864 226.976 51.5407C226.018 51.279 225.178 50.2877 225.478 49.3448C226.081 50.2236 227.131 50.7805 228.2 50.7887C228.611 50.7918 229.034 50.7136 229.374 50.4847C230.07 50.0162 230.234 49.0828 230.337 48.2526Z" fill="#00160A"/>
</g>
<defs>
<linearGradient id="paint0_linear_1_1400" x1="355" y1="-46.5" x2="-27" y2="160" gradientUnits="userSpaceOnUse">
<stop stop-color="#283952"/>
<stop offset="0.479167" stop-color="#525182"/>
<stop offset="0.984375" stop-color="#7990B1"/>
</linearGradient>
<clipPath id="clip0_1_1400">
<rect width="343" height="127" rx="25" fill="white"/>
</clipPath>
</defs>
</svg>
